<svg width="18" height="22" viewBox="0 0 18 22" fill="none" xmlns="http://www.w3.org/2000/svg">
<path d="M9.00167 0.927734C11.2181 0.927734 13.3438 1.80822 14.9111 3.37548C16.4783 4.94275 17.3588 7.06843 17.3588 9.28488C17.3588 12.8163 14.8774 16.6649 9.97882 20.8717C9.70644 21.1057 9.35915 21.2342 9.00007 21.2339C8.64099 21.2336 8.29393 21.1045 8.02196 20.87L7.69796 20.5889C3.01625 16.4917 0.644531 12.7374 0.644531 9.28488C0.644531 7.06843 1.52501 4.94275 3.09228 3.37548C4.65955 1.80822 6.78522 0.927734 9.00167 0.927734ZM9.00167 2.21345C7.12622 2.21345 5.32757 2.95847 4.00142 4.28462C2.67527 5.61077 1.93025 7.40942 1.93025 9.28488C1.93025 12.2866 4.11425 15.7452 8.54225 19.6194L8.86196 19.8963C8.90083 19.9297 8.95041 19.9481 9.00167 19.9481C9.05294 19.9481 9.10252 19.9297 9.14139 19.8963C13.7837 15.9089 16.0731 12.3577 16.0731 9.28488C16.0731 8.35624 15.8902 7.4367 15.5348 6.57876C15.1795 5.72081 14.6586 4.94127 14.0019 4.28462C13.3453 3.62798 12.5657 3.1071 11.7078 2.75173C10.8498 2.39636 9.93031 2.21345 9.00167 2.21345ZM9.00167 6.07059C9.85416 6.07059 10.6717 6.40924 11.2745 7.01203C11.8773 7.61483 12.216 8.4324 12.216 9.28488C12.216 10.1374 11.8773 10.9549 11.2745 11.5577C10.6717 12.1605 9.85416 12.4992 9.00167 12.4992C8.14919 12.4992 7.33163 12.1605 6.72883 11.5577C6.12604 10.9549 5.78739 10.1374 5.78739 9.28488C5.78739 8.4324 6.12604 7.61483 6.72883 7.01203C7.33163 6.40924 8.14919 6.07059 9.00167 6.07059ZM9.00167 7.35631C8.49019 7.35631 7.99965 7.55949 7.63797 7.92117C7.27629 8.28285 7.0731 8.77339 7.0731 9.28488C7.0731 9.79637 7.27629 10.2869 7.63797 10.6486C7.99965 11.0103 8.49019 11.2134 9.00167 11.2134C9.51316 11.2134 10.0037 11.0103 10.3654 10.6486C10.7271 10.2869 10.9302 9.79637 10.9302 9.28488C10.9302 8.77339 10.7271 8.28285 10.3654 7.92117C10.0037 7.55949 9.51316 7.35631 9.00167 7.35631Z" fill="#202020"/>
</svg>
