<svg width="24" height="24" viewBox="0 0 24 24" fill="none" xmlns="http://www.w3.org/2000/svg">
<path d="M11.6016 24C6.07215 24 1.60156 19.5294 1.60156 14C1.60156 8.47059 6.07215 4 11.6016 4C17.131 4 21.6016 8.47059 21.6016 14C21.6016 19.5294 17.131 24 11.6016 24ZM11.6016 5.17647C6.71921 5.17647 2.77803 9.11765 2.77803 14C2.77803 18.8824 6.71921 22.8235 11.6016 22.8235C16.4839 22.8235 20.4251 18.8824 20.4251 14C20.4251 9.11765 16.4839 5.17647 11.6016 5.17647Z" fill="black"/>
<path d="M14.4719 19.2008L11.1992 15.4991V8.80078H12.2382V15.029L15.1992 18.3782L14.4719 19.2008Z" fill="black"/>
</svg>
