<svg width="51" height="34" viewBox="0 0 51 34" fill="none" xmlns="http://www.w3.org/2000/svg">
<path d="M32.9735 22.3004L22.6145 4.27892L30.0564 0L42.9377 22.3004H32.9735Z" fill="black" fill-opacity="0.3"/>
<path d="M5.38159 19.7746L12.8235 15.4668L16.761 22.2996H6.82568L5.38159 19.7746Z" fill="black" fill-opacity="0.3"/>
<path d="M19.9863 33.7978H22.1043V25.2207H19.9863V33.7978Z" fill="black" fill-opacity="0.3"/>
<path d="M46.5286 33.999C44.1603 33.999 42.7355 32.7751 42.6584 31.05H44.892C44.892 31.5897 45.2289 32.38 46.673 32.4089C47.6358 32.4089 48.0882 31.8403 48.0882 31.4163C48.0305 30.7417 47.1833 30.6838 46.2783 30.5393C45.3734 30.3947 44.6032 30.2309 44.0448 29.9418C43.3324 29.5755 42.851 28.7853 42.851 27.8794C42.851 26.3471 44.1796 25.1328 46.3938 25.1328C48.5407 25.1328 49.8982 26.2604 50.0426 27.9372H47.8861C47.8668 27.4843 47.7802 26.7711 46.5094 26.7711C45.6525 26.7711 45.0845 26.9446 45.0364 27.5421C45.0364 28.4191 46.8174 28.3613 48.2038 28.7275C49.5323 29.0648 50.3795 29.8936 50.3795 31.05C50.3795 33.1799 48.6562 33.999 46.5286 33.999Z" fill="black" fill-opacity="0.3"/>
<path d="M14.104 12.1244L21.5459 7.82617L29.8927 22.3012H22.1043V24.4214H19.9863V22.2916L14.104 12.1244Z" fill="black" fill-opacity="0.3"/>
<path fill-rule="evenodd" clip-rule="evenodd" d="M14.2964 34.0003C11.8318 34.0003 9.82935 31.9861 9.82935 29.5479C9.82935 27.0808 11.8318 25.1341 14.2964 25.1341C15.2303 25.1341 16.0775 25.3847 16.8188 25.8954V22.3008H18.9368V33.7979H16.8188V33.2294C16.0775 33.7112 15.2303 34.0003 14.2964 34.0003ZM11.8607 29.5479C11.8607 30.8779 12.9967 31.9861 14.3542 31.9861C15.6827 31.9861 16.8188 30.8779 16.8188 29.5479C16.8188 28.218 15.6827 27.0808 14.3542 27.0808C12.9967 27.0808 11.8607 28.218 11.8607 29.5479Z" fill="black" fill-opacity="0.3"/>
<path fill-rule="evenodd" clip-rule="evenodd" d="M29.9503 22.3008H32.0395V33.7979H29.9503V33.2294C29.2379 33.7112 28.3618 34.0003 27.3991 34.0003C24.9634 34.0003 22.9609 31.9861 22.9609 29.5479C22.9609 27.0808 24.9634 25.1341 27.3991 25.1341C28.3618 25.1341 29.209 25.3847 29.9503 25.8954V22.3008ZM25.0212 29.5479C25.0212 30.8779 26.1572 31.9861 27.4569 31.9861C28.8143 31.9861 29.9503 30.8779 29.9503 29.5479C29.9503 28.218 28.8143 27.0808 27.4569 27.0808C26.1572 27.0808 25.0212 28.218 25.0212 29.5479Z" fill="black" fill-opacity="0.3"/>
<path fill-rule="evenodd" clip-rule="evenodd" d="M37.1901 33.999C34.7641 33.999 32.752 31.9848 32.752 29.5466C32.752 27.0795 34.7641 25.1328 37.1901 25.1328C38.124 25.1328 39.0001 25.3834 39.7125 25.8941V25.2099H41.8305V33.7966H39.7125V33.228C39.0001 33.7099 38.1529 33.999 37.1901 33.999ZM34.8122 29.5466C34.8122 30.8766 35.9482 31.9848 37.2768 31.9848C38.6053 31.9848 39.7125 30.8766 39.7125 29.5466C39.7125 28.2167 38.6053 27.0795 37.2768 27.0795C35.9482 27.0795 34.8122 28.2167 34.8122 29.5466Z" fill="black" fill-opacity="0.3"/>
<path fill-rule="evenodd" clip-rule="evenodd" d="M2.04098 29.5466C2.04098 30.8766 3.177 31.9848 4.50557 31.9848C5.86301 31.9848 6.99903 30.8766 6.99903 29.5466C6.99903 28.2167 5.86301 27.0795 4.50557 27.0795C3.177 27.0795 2.04098 28.2167 2.04098 29.5466ZM4.4478 33.999C2.0121 33.999 0 31.9848 0 29.5466C0 27.0795 2.0121 25.1328 4.4478 25.1328C5.38165 25.1328 6.25773 25.3834 6.99903 25.8941V25.2099H9.08815V33.7966H6.99903V33.228C6.28661 33.7099 5.41053 33.999 4.4478 33.999Z" fill="black" fill-opacity="0.3"/>
</svg>
