<svg width="49" height="33" viewBox="0 0 49 33" fill="none" xmlns="http://www.w3.org/2000/svg">
<path d="M18.384 18.4653L18.3639 13.482L23.1219 11.712L18.3303 10.1384L18.2299 5.22852L15.3232 9.18996L10.5684 7.72008L13.3284 11.8785L10.6343 16.0446L15.3272 14.485L18.384 18.4653Z" fill="black" fill-opacity="0.3"/>
<path d="M18.9783 23.7042H27.5007L38.1819 11.8593L27.4492 0H19.0089L29.0469 11.8419L18.9783 23.7042Z" fill="black" fill-opacity="0.3"/>
<path d="M0 30.0804C0 28.5411 1.29776 27.0273 3.0714 27.0273C4.27954 27.0273 5.63536 28.3932 5.63536 28.3932L4.16642 29.2502C4.16642 29.2502 3.92378 28.6074 3.01799 28.6074C2.09721 28.6074 1.55541 29.3656 1.54906 30.0536C1.54195 30.8228 2.17078 31.4998 2.96457 31.4998C3.58739 31.4998 4.24655 30.8303 4.24655 30.8303L5.50182 31.7409C5.50182 31.7409 4.56249 32.8925 2.99128 32.8925C1.41696 32.8925 0 31.9405 0 30.0804Z" fill="black" fill-opacity="0.3"/>
<path fill-rule="evenodd" clip-rule="evenodd" d="M9.15832 27.1055C7.50629 27.1055 6.16943 28.4287 6.16943 30.0557C6.16943 31.6827 7.50629 33.0007 9.15832 33.0007C10.8104 33.0007 12.1524 31.6827 12.1524 30.0557C12.1524 28.4287 10.8104 27.1055 9.15832 27.1055ZM9.15832 28.5806C9.98434 28.5806 10.6554 29.2422 10.6554 30.0557C10.6554 30.8692 9.98434 31.5256 9.15832 31.5256C8.33231 31.5256 7.66648 30.8692 7.66648 30.0557C7.66648 29.2422 8.33231 28.5806 9.15832 28.5806Z" fill="black" fill-opacity="0.3"/>
<path fill-rule="evenodd" clip-rule="evenodd" d="M13.2754 27.1895V32.7042H14.7153V29.7237L17.0908 32.7042H18.5098V27.1895H17.0648V30.4123L14.7153 27.1895H13.2754Z" fill="black" fill-opacity="0.3"/>
<path fill-rule="evenodd" clip-rule="evenodd" d="M19.6846 27.1895L21.6286 32.7042H23.7703L25.7143 27.1895H24.1393L22.6995 31.5679L21.2596 27.1895H19.6846Z" fill="black" fill-opacity="0.3"/>
<path fill-rule="evenodd" clip-rule="evenodd" d="M26.7488 27.1895V32.7042H31.1723V31.4323H28.1886V30.5097H30.8708V29.3839H28.1886V28.503H31.1723V27.1895H26.7488Z" fill="black" fill-opacity="0.3"/>
<path fill-rule="evenodd" clip-rule="evenodd" d="M44.5764 27.1895V32.7042H49V31.4323H46.0163V30.5097H48.6985V29.3839H46.0163V28.503H49V27.1895H44.5764Z" fill="black" fill-opacity="0.3"/>
<path fill-rule="evenodd" clip-rule="evenodd" d="M32.7993 27.293V32.7295H34.078V30.5872H34.811L35.9338 32.7295H37.5815L36.4692 30.4048C37.9154 29.5352 37.6291 27.7152 36.0169 27.293H32.7993ZM34.0521 28.6065H35.5283C36.0412 28.6065 36.0079 29.404 35.5283 29.404H34.0521V28.6065Z" fill="black" fill-opacity="0.3"/>
<path d="M38.3499 31.9684C38.4065 32.3092 39.7467 32.9531 41.0693 32.9531C42.2839 32.9531 43.26 32.3683 43.26 31.2076C43.26 29.7801 41.5981 29.4497 41.5981 29.4497C41.5981 29.4497 40.2173 29.4302 40.1817 28.7869C40.165 28.4842 40.5855 28.3135 40.956 28.3135C41.5627 28.3135 42.2402 28.9195 42.2402 28.9195L43.2034 27.8779C43.2034 27.8779 41.9847 26.9121 40.956 26.9121C39.9737 26.9121 38.5765 27.5572 38.5765 28.9005C38.5765 30.0435 40.1938 30.5692 40.1938 30.5692C40.1938 30.5692 41.9003 30.7514 41.9003 31.2866C41.9003 31.6508 41.2815 31.7601 40.9183 31.7601C40.0365 31.7601 39.2941 30.9836 39.2941 30.9836L38.3499 31.9684Z" fill="black" fill-opacity="0.3"/>
</svg>
