<svg width="203" height="137" viewBox="0 0 203 137" fill="none" xmlns="http://www.w3.org/2000/svg">
<g clip-path="url(#clip0_58_12467)">
<path d="M132.864 89.8577L91.123 17.2415L121.109 0L173.014 89.8577H132.864Z" fill="black" fill-opacity="0.3"/>
<path d="M21.6855 79.6842L51.672 62.3262L67.538 89.8582H27.5044L21.6855 79.6842Z" fill="black" fill-opacity="0.3"/>
<path d="M80.5332 136.184H89.0675V101.623H80.5332V136.184Z" fill="black" fill-opacity="0.3"/>
<path d="M187.483 136.999C177.94 136.999 172.199 132.067 171.889 125.116H180.889C180.889 127.291 182.246 130.475 188.065 130.592C191.944 130.592 193.768 128.301 193.768 126.592C193.535 123.874 190.121 123.641 186.475 123.058C182.828 122.476 179.725 121.816 177.475 120.651C174.604 119.175 172.665 115.991 172.665 112.341C172.665 106.166 178.018 101.273 186.94 101.273C195.591 101.273 201.06 105.817 201.642 112.574H192.953C192.875 110.748 192.526 107.875 187.406 107.875C183.953 107.875 181.664 108.574 181.47 110.981C181.47 114.515 188.647 114.282 194.233 115.758C199.586 117.117 203 120.457 203 125.116C203 133.698 196.056 136.999 187.483 136.999Z" fill="black" fill-opacity="0.3"/>
<path d="M56.8301 48.8504L86.8165 31.5312L120.449 89.8572H89.0664V98.4002H80.5322V89.8183L56.8301 48.8504Z" fill="black" fill-opacity="0.3"/>
<path fill-rule="evenodd" clip-rule="evenodd" d="M57.6071 137C47.6762 137 39.6074 128.884 39.6074 119.059C39.6074 109.118 47.6762 101.274 57.6071 101.274C61.3699 101.274 64.7836 102.284 67.7706 104.342V89.8574H76.3049V136.184H67.7706V133.893C64.7836 135.835 61.3699 137 57.6071 137ZM47.7926 119.059C47.7926 124.418 52.3701 128.884 57.8398 128.884C63.1931 128.884 67.7706 124.418 67.7706 119.059C67.7706 113.7 63.1931 109.118 57.8398 109.118C52.3701 109.118 47.7926 113.7 47.7926 119.059Z" fill="black" fill-opacity="0.3"/>
<path fill-rule="evenodd" clip-rule="evenodd" d="M120.683 89.8574H129.101V136.184H120.683V133.893C117.812 135.835 114.282 137 110.403 137C100.588 137 92.5195 128.884 92.5195 119.059C92.5195 109.118 100.588 101.274 110.403 101.274C114.282 101.274 117.696 102.284 120.683 104.342V89.8574ZM100.821 119.059C100.821 124.418 105.399 128.884 110.636 128.884C116.105 128.884 120.683 124.418 120.683 119.059C120.683 113.7 116.105 109.118 110.636 109.118C105.399 109.118 100.821 113.7 100.821 119.059Z" fill="black" fill-opacity="0.3"/>
<path fill-rule="evenodd" clip-rule="evenodd" d="M149.854 136.999C140.078 136.999 131.971 128.883 131.971 119.059C131.971 109.118 140.078 101.273 149.854 101.273C153.617 101.273 157.147 102.283 160.018 104.341V101.584H168.552V136.184H160.018V133.892C157.147 135.834 153.733 136.999 149.854 136.999ZM140.272 119.059C140.272 124.417 144.85 128.883 150.203 128.883C155.556 128.883 160.018 124.417 160.018 119.059C160.018 113.7 155.556 109.118 150.203 109.118C144.85 109.118 140.272 113.7 140.272 119.059Z" fill="black" fill-opacity="0.3"/>
<path fill-rule="evenodd" clip-rule="evenodd" d="M8.22396 119.059C8.22396 124.417 12.8015 128.883 18.1548 128.883C23.6245 128.883 28.202 124.417 28.202 119.059C28.202 113.7 23.6245 109.118 18.1548 109.118C12.8015 109.118 8.22396 113.7 8.22396 119.059ZM17.922 136.999C8.10758 136.999 0 128.883 0 119.059C0 109.118 8.10758 101.273 17.922 101.273C21.6849 101.273 25.215 102.283 28.202 104.341V101.584H36.6199V136.184H28.202V133.892C25.3314 135.834 21.8013 136.999 17.922 136.999Z" fill="black" fill-opacity="0.3"/>
</g>
<defs>
<clipPath id="clip0_58_12467">
<rect width="203" height="137" fill="white"/>
</clipPath>
</defs>
</svg>
