<svg width="160" height="149" viewBox="0 0 160 149" fill="none" xmlns="http://www.w3.org/2000/svg">
<g clip-path="url(#clip0_58_11583)">
<path d="M86.9156 10.1557C86.854 9.82479 86.8119 9.49056 86.7896 9.15473C86.4616 4.44083 90.0161 0.35319 94.7372 0.0210941C99.4636 -0.307674 103.557 3.24555 103.887 7.95945C104.217 12.6734 100.661 16.761 95.9398 17.0931C95.6411 17.1157 95.3451 17.1197 95.0558 17.1084C94.8645 17.1576 94.7498 17.1809 94.5852 17.326C94.0992 18.0821 95.8211 17.941 94.6505 21.2453C94.6505 21.2453 94.6425 21.608 94.5125 21.9707C94.4205 23.2392 93.9319 26.9981 93.8619 29C94.1105 29.2901 94.1805 29.4312 94.1532 30.1347C94.0425 31.0857 93.8239 33.4164 93.4726 34.9098C93.1746 36.1896 92.6513 36.4339 92.2293 36.7473C91.636 39.3988 91.4794 41.595 89.9574 44.8155C89.8194 47.2566 89.6474 47.9215 89.1348 49.1134C89.0775 52.7079 89.3261 53.243 86.8969 58.9345C86.2696 61.5966 86.8663 63.4381 87.5282 66.204C88.2055 69.0465 90.0841 70.2345 90.3634 73.1455C91.0214 80.001 90.8567 84.6683 89.3835 90.0438L90.6694 93.0839C92.2653 93.8146 96.2251 95.8125 94.0292 98.9751C97.1217 100.598 101.793 102.321 105.646 105.611C107.196 106.899 108.833 108.304 110.302 109.954C113.1 110.389 112.801 110.61 114.874 111.882C120.97 115.614 130.747 123.016 136.414 128.257C137.39 128.826 137.788 129.236 138.576 129.649C138.699 129.885 138.732 129.939 138.705 130.003C138.434 130.687 138.444 130.707 138.2 131.252C138.506 131.59 139.075 131.905 139.416 132.201C139.735 132.3 139.735 132.147 140.281 132.014C140.993 132.678 141.874 133.214 142.19 133.183C143.155 132.939 142.99 133.138 143.805 132.227C144.099 131.926 144.59 132.231 144.59 132.231C144.896 131.873 145.554 131.158 146.431 130.641C147.131 130.229 148.467 130.183 148.467 130.183C148.914 130.187 148.83 130.645 148.792 130.794C148.286 131.055 147.216 131.341 146.614 131.783C145.305 133.135 144.28 134.959 144.28 134.959C146.916 134.599 148.535 135.252 150.732 135.001C151.929 134.931 152.813 135.008 154.071 134.099C154.071 134.099 155.281 133.24 156.364 132.784C157.416 132.326 158.414 132.571 159.34 133.242C159.994 133.979 160.388 133.983 159.394 135.023C159.034 135.427 158.514 135.878 157.852 136.532C156.689 137.679 155.123 139.209 153.502 140.474C151.86 141.754 149.997 142.904 148.834 143.431C145.899 145.536 146.592 144.985 144.285 147.072C143.993 147.332 143.221 147.797 142.846 148.045C141.936 148.642 141.652 148.145 141.059 147.052C141.059 147.052 140.787 146.645 140.339 145.773C139.85 144.822 139.483 143.734 139.631 143.752C139.085 143.683 136.624 140.803 136.618 140.185C136.097 140.066 133.877 137.92 133.798 137.51L131.831 135.936C129.581 136.403 129.065 135.008 123.123 130.798C122.445 130.786 121.398 130.421 119.896 129.31C117.215 127.165 110.782 122.314 109.692 121.76C108.52 121.164 107.121 120.603 106.263 119.896C104.977 119.66 104.273 119.525 103.63 119.346C102.973 119.166 102.375 118.934 100.711 118.712C98.0023 118.376 95.1932 117.256 92.5186 115.92C91.2527 115.321 90.1501 115.016 89.0601 114.548C86.6149 113.517 84.5184 112.588 82.8938 112.214C82.2738 112.152 79.3273 111.27 77.7821 110.369C77.2461 110.094 76.9361 109.83 76.5842 109.75C75.7729 109.564 75.2522 109.884 74.8856 110.007C72.9037 111.038 71.0478 111.928 69.3332 112.849C67.7373 113.701 66.268 114.586 64.7108 115.481C63.3062 116.291 61.6836 117.055 60.0157 117.85C60.0157 117.85 55.2593 120.23 52.6614 121.155C50.4076 122.992 45.8005 126.17 42.9886 127.744C41.596 128.405 38.8908 130.116 37.6429 130.498C36.9309 131.071 34.3944 132.877 32.4085 134.368C30.8739 135.514 29.7147 136.48 29.7147 136.48C28.8234 137.278 28.884 137.657 27.1895 136.938C26.7188 137.324 26.3555 137.564 26.0529 137.786C24.8289 138.672 24.7249 138.459 24.2776 138.435C23.4243 139.173 23.317 138.791 22.571 139.64C22.0811 140.397 22.5824 140.216 21.5491 140.584C21.3311 140.667 21.2278 140.93 21.0598 141.076C20.2292 141.759 20.2258 143.689 18.2359 143.827C17.084 144.647 17.3787 145.638 16.4987 145.595C16.5527 146.446 14.9415 147.689 14.6508 147.685C12.1136 148.559 11.9376 146.696 8.89178 148.086C8.4978 148.266 7.91983 148.764 7.15854 148.907C5.81927 149.16 4.20069 148.895 3.21341 148.132C1.6595 146.936 0.228907 144.629 0.228907 144.629C-0.265067 143.463 0.0222513 142.727 1.56417 141.625C2.2068 141.217 2.32546 140.912 3.40474 140.838C3.94071 140.635 3.79472 140.945 4.752 140.602C5.30663 140.403 5.30664 140.545 6.42391 140.45C6.67989 140.277 7.03988 140.216 7.52185 140.06C8.4058 139.769 9.26709 139.445 9.26709 139.445C9.26709 139.445 9.49241 139.219 10.3424 139.3C11.0617 139.006 11.8003 138.569 12.1789 138.435C12.0829 137.298 12.2056 137.351 12.7336 136.893C13.3915 136.327 13.5102 136.419 14.0002 136.77C14.2068 136.651 14.3062 136.61 14.2835 136.437C14.2028 135.845 13.6942 135.566 13.8475 134.26C13.6215 133.737 13.2889 133.092 13.3615 132.702C13.4689 132.281 13.5722 132.078 13.8282 131.944C14.1002 131.8 14.1882 131.995 14.3335 132.158C14.5935 132.46 14.8041 133.355 14.8041 133.355C14.8961 134.364 15.2094 135.67 16.2081 134.933C16.7974 134.336 16.912 132.748 18.1133 133.088L18.9706 133.832C19.6979 133.149 19.7325 133.149 20.1685 132.874C20.1685 132.874 19.4872 132.187 20.0845 131.652C20.4938 131.288 20.9871 131.028 21.8637 130.058C24.2703 127.404 25.5062 126.23 28.1087 124.091C33.3011 119.827 39.2088 116.837 42.9626 115.35C44.1866 113.799 45.3772 112.768 48.0937 112.508C51.3228 107.064 57.5065 102.202 58.9264 101.427C60.0817 99.3365 60.583 99.5587 62.0943 99.1388C63.2915 98.1804 63.5635 98.1804 64.0995 97.1795C64.6201 95.1137 62.8982 89.5932 67.294 89.3143C68.2279 87.9973 67.9946 88.3134 69.0352 87.0682C68.3313 85.3338 68.0406 83.883 67.8493 82.6332C67.8146 82.4881 66.1047 81.2848 66.59 79.7142C65.8634 78.851 64.5048 76.8364 64.0802 75.8927C63.8855 75.8967 63.7242 75.8235 63.5102 75.7942C63.2882 75.759 63.0122 75.7716 62.7029 75.745C62.0183 77.5086 61.2723 77.6397 60.055 78.0291C57.8818 82.6531 57.1165 84.6104 50.9675 88.4332C48.5263 91.1618 47.7457 94.2019 47.757 94.1567C47.3364 95.0578 47.485 96.319 47.707 96.9951C47.3857 97.9961 47.4697 98.0952 47.4697 98.0952C47.6037 98.4733 47.9524 98.9737 48.3803 99.0802C49.119 99.2752 49.8576 99.2439 49.8149 100.065C49.7156 101.093 48.365 100.924 47.7257 100.81C45.2652 100.42 46.0425 98.8193 44.4692 99.3538C43.2639 100.141 42.8126 102.464 40.8454 102.162C40.5854 101.991 40.6654 101.483 40.8414 101.116C41.1174 100.543 41.6067 100.069 41.316 99.8542C40.0333 100.264 38.7527 100.681 37.4742 101.104C36.269 101.432 34.9484 100.833 36.135 100.041C36.6863 99.8276 37.4742 99.5594 38.4462 98.9378C38.4462 98.9378 38.9468 98.2576 37.9869 98.5977C36.9383 98.9717 35.3924 99.2047 34.2831 99.0829C34.2831 99.0829 31.9832 98.7814 31.6886 98.6011C31.3899 98.4207 31.1186 97.7112 31.8379 97.7152C32.7485 97.7232 35.029 97.455 36.797 96.9852C37.6502 96.6531 39.2728 95.6947 40.1834 95.2435C40.1834 95.2435 41.1707 93.8073 41.714 93.5244C42.6206 92.4822 43.3859 91.8666 44.1892 90.8004C44.9738 89.1839 45.7851 86.6256 48.383 82.6638C49.5843 80.8376 51.0769 78.7106 52.9554 76.8085C52.9554 76.8085 53.4414 73.7644 55.8866 71.5981C56.4266 70.3296 57.2452 68.8362 58.0525 67.4532C58.3665 66.9221 58.6644 66.4603 58.9631 65.9558C59.7211 64.7679 60.517 62.5563 63.4709 62.2082C63.4709 62.2082 64.7335 61.2765 65.2194 60.6143C65.9774 59.9688 65.8047 58.9645 66.4207 58.257C65.4794 57.3406 63.0729 55.6176 62.8389 53.2224C62.5902 50.682 63.4969 48.5923 65.0354 47.0456C66.742 45.3419 68.5406 44.49 70.7251 44.6198C73.453 45.0244 73.9696 45.9262 74.8382 46.82C75.6722 47.6679 75.9822 47.1222 76.3342 48.1151C78.6227 48.7228 78.4961 48.4552 78.4767 50.1363C78.8287 50.6095 79.418 51.0494 79.41 52.0311C80.1793 50.4378 80.332 50.1443 82.3872 48.3907C82.8732 46.9658 83.2031 45.5642 83.6298 44.1393C84.0304 42.8216 84.5284 41.4652 84.9144 40.445C84.5051 37.5646 85.3457 37.0874 86.4676 34.5624C86.269 34.215 86.3116 34.1158 86.3956 33.5462C86.8316 31.877 87.5129 29.6688 87.9182 28.2286C87.9182 28.2286 88.0522 27.6556 88.6455 27.6137C89.1588 25.7915 89.9281 22.3993 90.0574 21.7078C90.5854 19.8018 90.2448 19.1902 89.8394 18.1167C89.7094 17.7653 89.7701 17.2648 89.5455 16.8748C88.9062 15.7634 88.2182 14.3192 87.7515 13.2876C87.4489 12.6308 86.9703 10.155 86.9703 10.155C86.5596 8.89119 86.9156 10.1557 86.9156 10.1557Z" fill="black" fill-opacity="0.3"/>
</g>
<defs>
<clipPath id="clip0_58_11583">
<rect width="160" height="149" fill="white"/>
</clipPath>
</defs>
</svg>
