<svg width="243" height="123" viewBox="0 0 243 123" fill="none" xmlns="http://www.w3.org/2000/svg">
<path d="M0.966908 0.830078C9.32405 0.833284 17.6812 0.830078 26.0383 0.833284C30.3294 0.868548 34.659 2.40414 37.7994 5.35992C40.4062 7.77071 42.0648 11.2619 41.9523 14.8396C42.0551 18.0839 41.033 21.3987 38.9308 23.9025C37.2562 25.9574 34.9098 27.3648 32.4283 28.2367C35.0223 28.9741 37.5198 30.4039 39.053 32.6736C40.2616 34.3791 40.718 36.4918 40.7373 38.5531C40.7405 42.3552 40.7437 46.1573 40.7341 49.9595C37.2016 49.953 33.6691 49.9595 30.1366 49.9563C30.1301 46.9043 30.143 43.8524 30.1333 40.8004C30.0594 38.6204 29.5612 36.2962 27.9798 34.6933C26.3051 33.023 23.8398 32.5197 21.5576 32.4171C19.1662 32.3883 16.778 32.4139 14.3865 32.4075C14.3962 29.5704 14.3608 26.7364 14.4058 23.8992C17.8516 23.9313 21.2973 23.9025 24.743 23.9153C27.1505 23.9121 29.4744 22.4278 30.4966 20.251C31.8948 17.385 31.4737 13.4514 28.9376 11.3356C27.5008 10.1623 25.6012 9.71344 23.7755 9.72306C19.5166 9.73267 15.2608 9.71985 11.0051 9.72947C11.0083 20.1997 11.0051 30.67 11.0051 41.1434C7.65905 41.1434 4.30977 41.1434 0.963694 41.1434C0.963694 27.7046 0.96048 14.2689 0.966908 0.830078Z" fill="black" fill-opacity="0.3"/>
<path d="M127.932 0.830078C131.384 0.833284 134.836 0.833284 138.291 0.830078C138.291 11.4093 138.295 21.9886 138.291 32.5678C140.943 32.571 143.595 32.5678 146.25 32.571C149.641 32.6191 152.695 29.7275 153.019 26.3966C153.579 22.8862 151.158 19.0552 147.571 18.4269C145.671 18.1576 143.743 18.3628 141.834 18.3019C141.83 15.4423 141.834 12.5859 141.83 9.72947C144.055 9.71985 146.279 9.73267 148.503 9.72306C153.167 9.62688 157.725 12.0601 160.457 15.7949C163.202 19.5008 164.118 24.4026 163.221 28.8907C161.955 34.4977 157.137 38.7615 151.746 40.3901C149.037 41.2717 146.154 41.2364 143.338 41.2204C138.201 41.2204 133.065 41.2204 127.929 41.2204C127.929 27.7559 127.925 14.2946 127.932 0.830078Z" fill="black" fill-opacity="0.3"/>
<path d="M209.33 0.832482C212.811 0.829277 216.292 0.829277 219.777 0.832482C219.777 7.24094 219.773 13.6526 219.777 20.0643C221.956 19.9873 224.167 20.2566 226.327 19.8591C228.352 19.4423 229.992 17.8875 230.692 15.9736C231.528 13.97 231.467 11.758 231.538 9.63249C234.958 9.66776 238.378 9.6357 241.801 9.64852C241.714 12.9698 241.743 16.5154 240.004 19.4744C238.516 22.0583 235.707 23.4881 232.962 24.3697C236.211 25.2802 239.374 27.2357 240.827 30.3871C242.518 33.7275 241.936 37.5457 242.035 41.1426C238.58 41.1426 235.125 41.1426 231.673 41.1426C231.473 38.1644 232.287 34.9073 230.679 32.1951C229.439 29.9543 226.845 28.8258 224.373 28.6655C222.843 28.6014 221.307 28.6591 219.777 28.6399C219.773 32.8075 219.773 36.975 219.777 41.1394C216.292 41.1426 212.811 41.1426 209.33 41.1394C209.333 27.7038 209.33 14.2681 209.33 0.832482Z" fill="black" fill-opacity="0.3"/>
<path d="M181.467 9.62002C186.588 8.72238 192.107 9.1712 196.748 11.6365C200.29 13.5151 203.061 16.7979 204.199 20.6449C205.6 25.3991 205.031 30.8522 202.132 34.9525C199.689 38.4757 195.749 40.7583 191.605 41.6848C186.774 42.7523 181.554 42.4157 177.045 40.303C172.718 38.2994 169.189 34.4396 168.009 29.7815C166.797 24.9824 167.707 19.5645 170.828 15.6534C173.441 12.3802 177.382 10.3606 181.467 9.62002ZM184.02 17.6122C180.291 18.5418 177.52 22.2831 177.787 26.1172C177.938 28.8486 179.513 31.471 181.885 32.8559C184.238 34.321 187.321 34.4556 189.809 33.2374C193.637 31.4742 195.639 26.6302 194.032 22.7126C192.624 18.7983 188.028 16.4356 184.02 17.6122Z" fill="black" fill-opacity="0.3"/>
<path d="M47.8733 17.0483C50.5925 12.682 55.565 9.8192 60.7272 9.73584C67.4322 9.7134 74.134 9.73264 80.8358 9.72623C80.7875 12.7942 80.9354 15.8846 80.765 18.9334C78.5825 22.3957 76.3486 25.8291 74.15 29.2818C70.82 29.2722 67.4933 29.2978 64.1665 29.269C66.3683 25.6175 68.5797 21.9693 70.7525 18.3018C68.0654 18.2954 65.3783 18.3082 62.6879 18.2954C60.2579 18.2153 57.9018 19.6194 56.6483 21.668C55.144 24.0467 55.234 27.3262 56.9054 29.6024C58.2522 31.5579 60.6211 32.6928 62.9836 32.6511C68.9333 32.6511 74.8861 32.6479 80.8358 32.6511C80.8358 35.5075 80.839 38.3639 80.8358 41.2203C75.1047 41.2235 69.3736 41.2203 63.6425 41.2235C61.2897 41.2267 58.8822 41.2492 56.6129 40.5375C52.1225 39.2295 48.349 35.7608 46.6197 31.4329C44.7168 26.8037 45.1733 21.2768 47.8733 17.0483Z" fill="black" fill-opacity="0.3"/>
<path d="M92.0891 12.7684C94.7119 10.8 97.9777 9.7613 101.25 9.72603C107.839 9.72283 114.428 9.72603 121.014 9.72603C121.021 12.7908 121.005 15.8556 121.024 18.9204C118.809 22.373 116.601 25.8321 114.38 29.2816C111.057 29.2784 107.736 29.2816 104.413 29.2816C106.582 25.6077 108.81 21.9691 110.996 18.3016C108.061 18.308 105.126 18.2792 102.192 18.3113C98.2926 18.6254 95.223 22.6039 95.8723 26.4445C96.2998 29.7689 99.3019 32.5419 102.677 32.6317C108.816 32.6734 114.956 32.6413 121.092 32.6477C121.101 35.5041 121.092 38.3605 121.098 41.2201C114.496 41.2041 107.894 41.2586 101.292 41.1945C97.2287 41.1913 93.1787 39.5467 90.3373 36.639C86.9559 33.3658 85.2619 28.493 85.7762 23.8349C86.1909 19.4782 88.5437 15.3459 92.0891 12.7684Z" fill="black" fill-opacity="0.3"/>
<path d="M174.201 62.6294C196.797 60.1384 219.471 58.3624 242.154 56.9102C229.888 60.0262 217.581 63.0269 205.431 66.595C188.369 71.4518 171.732 77.6455 155.301 84.2816C146.703 79.2195 138.072 74.2152 129.48 69.1436C144.269 66.252 159.232 64.3317 174.201 62.6294Z" fill="black" fill-opacity="0.3"/>
<path d="M10.7988 58.291C39.0749 58.3263 67.3542 58.2493 95.6238 58.3295C101.802 61.4295 107.758 64.9656 113.785 68.3477C137.133 81.7256 160.356 95.3248 183.464 109.11C189.018 112.431 194.576 115.743 200.072 119.16C201.277 119.949 202.55 120.644 203.669 121.558C178.7 111.094 153.953 100.076 128.638 90.4648C107.054 82.2258 85.0167 75.1665 62.6163 69.4986C50.251 66.3344 37.7828 63.5838 25.2631 61.0961C20.4545 60.1055 15.5913 59.3425 10.7988 58.291Z" fill="black" fill-opacity="0.3"/>
<path d="M41.8208 99.5277C53.5658 91.8465 66.5354 86.2203 79.7333 81.543C87.5986 83.6588 95.329 86.2716 103.079 88.7753C92.7736 92.8499 82.8704 98.0306 73.9508 104.622C68.2486 108.898 62.7554 113.595 58.4161 119.279C45.6168 119.285 32.8176 119.292 20.0215 119.276C26.0997 111.521 33.5858 104.926 41.8208 99.5277Z" fill="black" fill-opacity="0.3"/>
<path d="M80.8996 110.642C89.7421 102.624 100.041 96.2991 110.934 91.4551C117.086 93.5998 123.193 95.8791 129.275 98.2194C124.013 101.954 118.773 105.811 114.399 110.584C111.879 113.277 109.651 116.227 107.591 119.279C96.0131 119.291 84.4353 119.275 72.8574 119.288C75.191 116.105 78.0099 113.316 80.8996 110.642Z" fill="black" fill-opacity="0.3"/>
</svg>
