<svg width="248" height="137" viewBox="0 0 248 137" fill="none" xmlns="http://www.w3.org/2000/svg">
<path d="M0.826172 135.42H6.34698V124.431C6.34698 122.473 6.34698 120.059 7.34689 118.644C8.34178 117.107 10.1286 116.607 11.126 116.607C15.7772 116.607 15.7772 122.104 15.7772 124.013V135.42H21.2955V122.933C21.2955 121.139 21.2955 117.273 19.1804 114.735C17.2733 112.401 14.2385 111.522 12.2487 111.522C8.75779 111.522 6.84818 113.444 5.93599 114.318V112.313H0.826172V135.42Z" fill="white" fill-opacity="0.3"/>
<path fill-rule="evenodd" clip-rule="evenodd" d="M46.4035 126.346C46.5614 125.6 46.7343 124.64 46.7343 123.559C46.7343 117.736 42.1232 111.397 34.8156 111.397C27.7135 111.397 22.6914 117.399 22.6914 123.931C22.6914 130.672 28.0067 136.172 34.8582 136.172C40.2562 136.172 44.6543 132.305 45.985 128.14H40.1685C39.1335 130.054 37.3091 131.092 34.8582 131.092C30.9137 131.092 28.7535 127.846 28.5029 126.346H46.4035ZM28.3375 121.891C29.375 117.602 32.8233 116.479 34.8582 116.479C37.5998 116.479 40.4617 118.185 41.0857 121.891H28.3375Z" fill="white" fill-opacity="0.3"/>
<path d="M53.8212 135.42H57.2194L61.5824 120.436H61.6626L65.9855 135.42H69.3887L77.8165 112.313H71.9223L67.6821 126.428H67.6019L63.8604 112.313H59.4648L55.6857 126.428H55.603L51.4104 112.313H45.5137L53.8212 135.42Z" fill="white" fill-opacity="0.3"/>
<path fill-rule="evenodd" clip-rule="evenodd" d="M88.5039 135.419H93.5661V132.63C94.9319 134.173 96.8916 136.17 101.335 136.17C109.76 136.17 112.792 128.386 112.792 123.761C112.792 117.648 108.226 111.52 101.21 111.52C98.6333 111.52 95.9318 112.483 94.0222 114.4V104.614H88.5039V135.419ZM93.6889 123.557C93.6889 120.186 96.3052 116.606 100.54 116.606C104.031 116.606 107.272 119.306 107.272 123.809C107.272 128.298 104.239 131.092 100.626 131.092C97.3878 131.092 93.6889 128.678 93.6889 123.557Z" fill="white" fill-opacity="0.3"/>
<path fill-rule="evenodd" clip-rule="evenodd" d="M138.572 112.314H133.503V115.236H133.42C133.252 114.899 130.468 111.52 125.782 111.52C119.389 111.52 114.236 116.643 114.236 123.725C114.236 131.423 119.512 136.172 125.451 136.172C128.353 136.172 131.761 134.627 133.503 132.556V135.421H138.572V112.314ZM133.342 123.811C133.342 128.097 130.43 131.092 126.609 131.092C122.667 131.092 119.757 127.886 119.757 123.974C119.757 120.519 122.083 116.608 126.609 116.608C129.892 116.608 133.342 119.019 133.342 123.811Z" fill="white" fill-opacity="0.3"/>
<path d="M147.029 104.615H141.508V135.42H147.029V104.615Z" fill="white" fill-opacity="0.3"/>
<path fill-rule="evenodd" clip-rule="evenodd" d="M173.019 112.314H167.954V115.236H167.869C167.701 114.899 164.917 111.52 160.231 111.52C153.83 111.52 148.686 116.643 148.686 123.725C148.686 131.423 153.961 136.172 159.898 136.172C162.802 136.172 166.205 134.627 167.954 132.556V135.421H173.019V112.314ZM167.787 123.811C167.787 128.097 164.882 131.092 161.06 131.092C157.113 131.092 154.209 127.886 154.209 123.974C154.209 120.519 156.534 116.608 161.06 116.608C164.341 116.608 167.787 119.019 167.787 123.811Z" fill="white" fill-opacity="0.3"/>
<path d="M175.959 135.42H181.477V124.431C181.477 122.473 181.477 120.059 182.477 118.644C183.472 117.107 185.264 116.607 186.256 116.607C190.905 116.607 190.905 122.104 190.905 124.013V135.42H196.431V122.933C196.431 121.139 196.431 117.273 194.308 114.735C192.399 112.401 189.371 111.522 187.376 111.522C183.886 111.522 181.981 113.444 181.064 114.318V112.313H175.959V135.42Z" fill="white" fill-opacity="0.3"/>
<path d="M216.051 127.886C214.595 130.218 212.773 131.092 210.946 131.092C206.788 131.092 204.009 127.804 204.009 123.849C204.009 119.103 207.332 116.606 210.693 116.606C214.098 116.606 215.389 118.811 216.051 119.975H222.283C219.915 112.855 213.597 111.52 210.693 111.52C204.34 111.52 198.488 116.691 198.488 123.761C198.488 131.424 204.834 136.17 210.738 136.17C216.136 136.17 220.409 133.047 222.283 127.886H216.051Z" fill="white" fill-opacity="0.3"/>
<path fill-rule="evenodd" clip-rule="evenodd" d="M246.845 126.346C247.008 125.6 247.173 124.64 247.173 123.559C247.173 117.736 242.567 111.397 235.26 111.397C228.157 111.397 223.133 117.399 223.133 123.931C223.133 130.672 228.448 136.172 235.3 136.172C240.695 136.172 245.101 132.305 246.426 128.14H240.615C239.575 130.054 237.753 131.092 235.3 131.092C231.353 131.092 229.195 127.846 228.952 126.346H246.845ZM228.781 121.891C229.821 117.602 233.265 116.479 235.3 116.479C238.044 116.479 240.906 118.185 241.527 121.891H228.781Z" fill="white" fill-opacity="0.3"/>
<path fill-rule="evenodd" clip-rule="evenodd" d="M94.8096 58.8322L87.4293 71.6105L46.5784 69.3066L50.6682 62.1888L94.8096 58.8322ZM124.341 18.1157L128.042 32.218L70.0775 28.3991L74.1649 21.2839L124.341 18.1157ZM85.9132 0.830116L119.842 0.85524L122.404 10.498L81.8308 7.94534L85.9132 0.830116ZM82.931 79.5573L77.0393 89.7126L34.8301 89.7578L38.9174 82.6451L82.931 79.5573ZM157.037 52.1592L146.82 69.9146H156.551C161.059 69.9146 169.139 67.6584 171.625 61.2216C173.928 55.2394 169.695 52.1517 166.74 52.1517L157.037 52.1592ZM166.781 35.1751L175.269 35.1224C180.917 35.0922 186.809 32.5019 188.964 27.2459C190.951 22.3692 188.28 18.2162 184.739 18.2313L176.529 18.2212L166.781 35.1751ZM128.36 32.218L136.931 17.3117L165.939 15.445L166.951 13.636L140.119 11.7542L146.394 0.830116L196.154 0.827606C211.456 0.827606 222.776 6.31226 218.375 22.4421C217.052 27.3288 210.832 39.6297 192.59 44.7827C196.462 45.245 206.105 49.5287 204.444 60.6336C201.492 80.3261 176.06 89.7 161.914 89.7051L103.167 89.7327L100.273 78.3388L131.042 76.163L132.087 74.3591L98.714 72.3215L95.1179 58.8146L142.605 56.0359L143.637 54.247L58.3242 48.8503L62.4115 41.7376L154.243 35.7605L155.283 33.9692L128.36 32.218Z" fill="white" fill-opacity="0.3"/>
</svg>
