<svg width="187" height="126" viewBox="0 0 187 126" fill="none" xmlns="http://www.w3.org/2000/svg">
<path d="M70.1592 70.5073L70.0823 51.4801L88.2406 44.722L69.954 38.7136L69.5709 19.9668L58.4779 35.0923L40.332 29.48L50.8654 45.3578L40.5839 61.2647L58.4934 55.3098L70.1592 70.5073Z" fill="black" fill-opacity="0.3"/>
<path d="M72.4277 90.5069H104.952L145.715 45.2811L104.756 0H72.5448L110.853 45.2146L72.4277 90.5069Z" fill="black" fill-opacity="0.3"/>
<path d="M0 114.851C0 108.973 4.95269 103.193 11.7215 103.193C16.3321 103.193 21.5064 108.408 21.5064 108.408L15.9004 111.681C15.9004 111.681 14.9744 109.226 11.5176 109.226C8.00362 109.226 5.93595 112.121 5.9117 114.748C5.88459 117.685 8.28441 120.27 11.3138 120.27C13.6906 120.27 16.2062 117.714 16.2062 117.714L20.9967 121.19C20.9967 121.19 17.4119 125.587 11.4157 125.587C5.40758 125.587 0 121.953 0 114.851Z" fill="black" fill-opacity="0.3"/>
<path fill-rule="evenodd" clip-rule="evenodd" d="M34.9515 103.49C28.6468 103.49 23.5449 108.542 23.5449 114.755C23.5449 120.967 28.6468 125.999 34.9515 125.999C41.2562 125.999 46.3779 120.967 46.3779 114.755C46.3779 108.542 41.2562 103.49 34.9515 103.49ZM34.9515 109.122C38.1039 109.122 40.6647 111.649 40.6647 114.755C40.6647 117.861 38.1039 120.367 34.9515 120.367C31.7991 120.367 29.2581 117.861 29.2581 114.755C29.2581 111.649 31.7991 109.122 34.9515 109.122Z" fill="black" fill-opacity="0.3"/>
<path fill-rule="evenodd" clip-rule="evenodd" d="M50.6621 103.809V124.865H56.1571V113.485L65.2229 124.865H70.6385V103.809H65.1237V116.114L56.1571 103.809H50.6621Z" fill="black" fill-opacity="0.3"/>
<path fill-rule="evenodd" clip-rule="evenodd" d="M75.123 103.809L82.5423 124.865H90.7154L98.1346 103.809H92.1238L86.6288 120.526L81.1338 103.809H75.123Z" fill="black" fill-opacity="0.3"/>
<path fill-rule="evenodd" clip-rule="evenodd" d="M102.082 103.809V124.865H118.964V120.009H107.577V116.486H117.813V112.187H107.577V108.824H118.964V103.809H102.082Z" fill="black" fill-opacity="0.3"/>
<path fill-rule="evenodd" clip-rule="evenodd" d="M170.119 103.809V124.865H187.001V120.009H175.614V116.486H185.85V112.187H175.614V108.824H187.001V103.809H170.119Z" fill="black" fill-opacity="0.3"/>
<path fill-rule="evenodd" clip-rule="evenodd" d="M125.172 104.207V124.965H130.052V116.785H132.849L137.134 124.965H143.422L139.177 116.088C144.697 112.768 143.604 105.819 137.451 104.207H125.172ZM129.953 109.222H135.587C137.544 109.222 137.417 112.267 135.587 112.267H129.953V109.222Z" fill="black" fill-opacity="0.3"/>
<path d="M146.355 122.058C146.572 123.359 151.686 125.818 156.734 125.818C161.369 125.818 165.094 123.585 165.094 119.153C165.094 113.703 158.752 112.441 158.752 112.441C158.752 112.441 153.482 112.366 153.347 109.91C153.283 108.755 154.888 108.103 156.301 108.103C158.617 108.103 161.202 110.416 161.202 110.416L164.878 106.44C164.878 106.44 160.227 102.752 156.301 102.752C152.553 102.752 147.22 105.215 147.22 110.344C147.22 114.708 153.393 116.715 153.393 116.715C153.393 116.715 159.905 117.411 159.905 119.455C159.905 120.845 157.543 121.262 156.157 121.262C152.792 121.262 149.959 118.298 149.959 118.298L146.355 122.058Z" fill="black" fill-opacity="0.3"/>
</svg>
