<svg width="278" height="99" viewBox="0 0 278 99" fill="none" xmlns="http://www.w3.org/2000/svg">
<g clip-path="url(#clip0_58_11581)">
<path d="M30.6655 98.959C22.3822 98.6302 15.6053 96.3654 10.3063 92.1589C9.29497 91.3554 6.88517 88.946 6.0767 87.9298C3.92788 85.2299 2.46696 82.6023 1.49255 79.687C-1.50588 70.7128 0.0373026 58.9367 5.9065 46.0126C10.9318 34.9479 18.686 23.974 32.2143 8.77521C34.2071 6.53873 40.1416 -0.00195312 40.1799 -0.00195312C40.1941 -0.00195312 39.8707 0.557866 39.4636 1.23958C35.9461 7.12691 32.9363 14.0616 31.2967 20.0652C28.6628 29.6984 28.9805 37.9653 32.2271 44.3756C34.4667 48.7918 38.3062 52.6171 42.6237 54.7316C50.1822 58.4321 61.2483 58.7383 74.7625 55.6274C75.6929 55.4119 121.798 43.1823 177.219 28.4498C232.641 13.7158 277.993 1.67042 278 1.68034C278.016 1.69312 149.241 56.7541 82.3919 85.3192C71.8052 89.8417 68.9741 90.984 63.9971 92.7301C51.2743 97.1945 39.8778 99.3247 30.6655 98.959Z" fill="black" fill-opacity="0.3"/>
</g>
<defs>
<clipPath id="clip0_58_11581">
<rect width="278" height="99" fill="white"/>
</clipPath>
</defs>
</svg>
