<svg width="299" height="29" viewBox="0 0 299 29" fill="none" xmlns="http://www.w3.org/2000/svg">
<path d="M46.171 6.7466L51.1795 17.4328H41.1273L46.1357 6.7466H46.171H46.171ZM39.0731 22.0753H53.269L55.9355 27.7964H61.7717L48.8376 1.20522H43.5768L30.6427 27.7964H36.4065L39.0731 22.0753ZM216.441 6.7466L221.449 17.4328H211.395L216.404 6.7466H216.441ZM209.343 22.0753H223.537L226.203 27.7964H232.041L219.106 1.20522H213.845L200.912 27.7964H206.676L209.343 22.0753ZM156.493 14.4471C156.493 22.5793 162.509 28.3727 171.299 28.3727C177.028 28.3727 180.127 26.2489 182.83 24.0193L179.839 20.1313C178.002 21.5359 175.406 23.4783 171.409 23.4783C165.86 23.4783 162.112 19.7734 162.112 14.4471C162.112 9.12243 165.823 5.5234 171.192 5.5234C174.795 5.5234 177.172 6.67435 179.154 8.32937L182.108 4.40773C179.334 2.10414 176.092 0.628906 171.192 0.628906C162.761 0.628906 156.493 6.38703 156.493 14.4471ZM261.081 4.19266C257.874 1.88908 254.92 0.628906 249.984 0.628906C241.409 0.628906 235.105 6.31478 235.105 14.4471C235.105 22.6146 241.264 28.3727 249.984 28.3727C255.534 28.3727 259.351 26.501 262.523 23.5875V13.3667H249.624V17.9016H257.477V21.4267C256.362 22.3273 254.055 23.5875 250.128 23.5875C244.545 23.5875 240.652 19.7734 240.652 14.4471C240.652 9.12243 244.58 5.48643 249.984 5.48643C253.732 5.48643 256.182 6.71131 258.126 8.1143L261.081 4.19266ZM16.4469 16.2449C17.744 16.2449 18.6457 16.4264 19.4011 17.001C20.1228 17.542 20.6259 18.4057 20.6259 19.5919C20.6259 20.7798 20.1228 21.6787 19.4011 22.2198C18.6457 22.7944 17.744 22.9389 16.4469 22.9389H5.89165V16.2449H16.4469ZM15.4021 6.06275C16.9162 6.06275 17.7086 6.35007 18.2487 6.85413C18.7534 7.39516 19.0411 8.07901 19.0411 8.83343C19.0411 9.58953 18.7534 10.2734 18.2487 10.8127C17.7086 11.3151 16.9162 11.6041 15.4021 11.6041H5.89165V6.06275H15.4021ZM93.153 27.7964H115.635V22.9389H98.4138V16.2449H111.311V11.6041H98.4138V6.06275H114.914V1.20522H93.153V27.7964ZM282.772 6.7466L287.778 17.4328H277.726L282.735 6.7466H282.772ZM275.674 22.0753H289.868L292.534 27.7964H298.371L285.436 1.20522H280.177L267.242 27.7964H273.007L275.674 22.0753ZM194.822 1.20522H189.561V27.7964H194.822V1.20522ZM85.875 22.9389H73.121V1.20522H67.8602V27.7964H85.875V22.9389ZM129.038 19.7364C129.038 14.0875 128.786 9.12244 128.786 9.12244H128.858C128.858 9.12244 131.308 12.6123 135.776 18.1167L143.631 27.7964H148.782V1.20522H143.522V9.40975C143.522 15.0587 143.737 20.0607 143.737 20.0607H143.666C143.666 20.0607 141.215 16.5709 136.784 11.0278L128.93 1.20522H123.777V27.7964H129.038V19.7364ZM16.8069 27.7964C19.8335 27.7964 21.6706 27.1495 23.1124 26.0339C25.0219 24.5586 26.2113 22.2551 26.2113 19.4844C26.2113 15.5627 23.6171 13.4759 21.4553 12.9349V12.8643C23.5095 11.9284 24.6266 9.8046 24.6266 7.71776C24.6266 5.34361 23.6895 3.68859 22.2123 2.64517C20.7706 1.63704 18.8257 1.20522 15.4391 1.20522H0.630859V27.7964H16.8069Z" fill="#141414" fill-opacity="0.3"/>
</svg>
