<svg width="29" height="29" viewBox="0 0 29 29" fill="none" xmlns="http://www.w3.org/2000/svg">
<circle cx="14.5" cy="14.5" r="13.5" fill="#EE523F"/>
<path d="M15.25 16.2109H13.3438L12.9453 8.57812H15.6484L15.25 16.2109ZM12.9141 18.8828C12.9141 18.3932 13.0469 18.0495 13.3125 17.8516C13.5833 17.6536 13.9089 17.5547 14.2891 17.5547C14.6589 17.5547 14.9766 17.6536 15.2422 17.8516C15.513 18.0495 15.6484 18.3932 15.6484 18.8828C15.6484 19.3516 15.513 19.6901 15.2422 19.8984C14.9766 20.1068 14.6589 20.2109 14.2891 20.2109C13.9089 20.2109 13.5833 20.1068 13.3125 19.8984C13.0469 19.6901 12.9141 19.3516 12.9141 18.8828Z" fill="white"/>
</svg>
