<svg width="11" height="7" viewBox="0 0 11 7" fill="none" xmlns="http://www.w3.org/2000/svg">
<path d="M0.188126 1.07325L5.17188 5.93137C5.25941 6.0167 5.37682 6.06445 5.49906 6.06445C5.62131 6.06445 5.73871 6.0167 5.82625 5.93137L10.8119 1.07325C10.8527 1.0335 10.8851 0.985982 10.9073 0.93349C10.9295 0.880998 10.9409 0.8246 10.9409 0.767625C10.9409 0.71065 10.9295 0.654251 10.9073 0.601759C10.8851 0.549267 10.8527 0.501746 10.8119 0.462C10.7282 0.380229 10.6158 0.33445 10.4988 0.33445C10.3817 0.33445 10.2693 0.380229 10.1856 0.462L5.49906 5.03044L0.813439 0.462C0.729765 0.380509 0.617581 0.334908 0.500782 0.334908C0.383984 0.334908 0.2718 0.380509 0.188126 0.462C0.147304 0.501746 0.114858 0.549267 0.092704 0.601759C0.0705496 0.654251 0.0591355 0.710649 0.0591355 0.767625C0.0591355 0.8246 0.0705496 0.880998 0.092704 0.93349C0.114858 0.985982 0.147304 1.0335 0.188126 1.07325V1.07325Z" fill="#181818"/>
</svg>
