<svg width="42" height="39" viewBox="0 0 42 39" fill="none" xmlns="http://www.w3.org/2000/svg">
<g clip-path="url(#clip0_138_23132)">
<path d="M22.8155 2.6582C22.7993 2.57159 22.7883 2.48411 22.7824 2.39621C22.6963 1.16237 23.6294 0.0924457 24.8687 0.00552126C26.1093 -0.0805322 27.1838 0.849507 27.2704 2.08335C27.357 3.31719 26.4236 4.38711 25.1843 4.47403C25.1059 4.47995 25.0282 4.481 24.9523 4.47804C24.9021 4.49093 24.872 4.49703 24.8288 4.535C24.7012 4.73289 25.1532 4.69596 24.8459 5.56085C24.8459 5.56085 24.8438 5.65579 24.8097 5.75072C24.7855 6.08274 24.6573 7.06661 24.6389 7.5906C24.7042 7.66655 24.7225 7.70348 24.7154 7.8876C24.6863 8.13653 24.6289 8.74657 24.5367 9.13747C24.4585 9.47245 24.3211 9.53638 24.2103 9.61843C24.0546 10.3124 24.0135 10.8873 23.614 11.7302C23.5777 12.3692 23.5326 12.5432 23.398 12.8552C23.383 13.796 23.4483 13.9361 22.8106 15.4258C22.6459 16.1226 22.8025 16.6046 22.9763 17.3286C23.1541 18.0726 23.6472 18.3835 23.7205 19.1455C23.8933 20.9399 23.85 22.1615 23.4633 23.5685L23.8009 24.3642C24.2198 24.5555 25.2592 25.0784 24.6828 25.9062C25.4946 26.3309 26.7208 26.7819 27.7322 27.6431C28.1391 27.9804 28.5688 28.3481 28.9545 28.7798C29.6888 28.8937 29.6104 28.9517 30.1546 29.2846C31.7549 30.2613 34.3211 32.1989 35.8087 33.5707C36.0649 33.7197 36.1694 33.827 36.3762 33.935C36.4086 33.9967 36.4173 34.0109 36.4102 34.0277C36.3391 34.2067 36.3417 34.212 36.2775 34.3546C36.3578 34.4429 36.5075 34.5255 36.5969 34.6029C36.6805 34.6288 36.6805 34.5889 36.824 34.5539C37.0107 34.7279 37.2421 34.8682 37.325 34.86C37.5782 34.796 37.535 34.8481 37.749 34.6098C37.826 34.5309 37.955 34.6109 37.955 34.6109C38.0353 34.517 38.208 34.3299 38.4383 34.1947C38.622 34.0869 38.9727 34.0749 38.9727 34.0749C39.0901 34.0759 39.0681 34.1958 39.0579 34.2348C38.9253 34.3029 38.6443 34.3778 38.4864 34.4936C38.1427 34.8474 37.8736 35.3247 37.8736 35.3247C38.5655 35.2307 38.9906 35.4016 39.5672 35.3357C39.8816 35.3176 40.1137 35.3378 40.4439 35.0998C40.4439 35.0998 40.7613 34.875 41.0457 34.7556C41.3218 34.6358 41.5839 34.6997 41.827 34.8755C41.9987 35.0683 42.1021 35.0694 41.841 35.3416C41.7467 35.4474 41.61 35.5655 41.4364 35.7365C41.1311 36.0368 40.72 36.4372 40.2944 36.7685C39.8634 37.1035 39.3743 37.4043 39.069 37.5423C38.2987 38.0933 38.4805 37.9492 37.8748 38.4953C37.7984 38.5634 37.5955 38.6852 37.4972 38.7501C37.2583 38.9062 37.1838 38.7761 37.0281 38.4902C37.0281 38.4902 36.9568 38.3835 36.8392 38.1553C36.7108 37.9063 36.6144 37.6217 36.6534 37.6264C36.5099 37.6083 35.8638 36.8544 35.8623 36.6927C35.7256 36.6615 35.1429 36.0999 35.1221 35.9926L34.6058 35.5806C34.0152 35.7027 33.8798 35.3376 32.3199 34.2358C32.142 34.2327 31.8671 34.1371 31.473 33.8461C30.7692 33.2849 29.0805 32.0152 28.7942 31.8701C28.4868 31.7141 28.1195 31.5673 27.8941 31.3821C27.5565 31.3203 27.3719 31.2851 27.203 31.2382C27.0305 31.1912 26.8735 31.1304 26.4367 31.0722C25.7258 30.9843 24.9883 30.6913 24.2863 30.3415C23.954 30.1847 23.6645 30.1047 23.3784 29.9823C22.7366 29.7124 22.1862 29.4694 21.7598 29.3714C21.597 29.3553 20.8236 29.1243 20.4179 28.8887C20.2773 28.8165 20.1959 28.7476 20.1035 28.7265C19.8905 28.6777 19.7539 28.7615 19.6576 28.7937C19.1374 29.0636 18.6502 29.2966 18.2001 29.5377C17.7812 29.7607 17.3955 29.9924 16.9867 30.2267C16.618 30.4387 16.1921 30.6385 15.7543 30.8466C15.7543 30.8466 14.5057 31.4696 13.8238 31.7117C13.2321 32.1925 12.0228 33.0243 11.2847 33.4363C10.9191 33.6092 10.209 34.0571 9.88141 34.1573C9.69452 34.3071 9.02868 34.78 8.50738 35.17C8.10455 35.47 7.80024 35.7229 7.80024 35.7229C7.56628 35.9318 7.58221 36.0309 7.13738 35.8428C7.01384 35.9438 6.91847 36.0067 6.83902 36.0647C6.51774 36.2967 6.49044 36.2408 6.37302 36.2347C6.14903 36.4277 6.12086 36.3279 5.92505 36.55C5.79643 36.7483 5.92802 36.7009 5.65678 36.797C5.59956 36.819 5.57244 36.8878 5.52834 36.926C5.3103 37.1047 5.30943 37.6099 4.78708 37.6459C4.4847 37.8607 4.56204 38.1201 4.33106 38.1088C4.34523 38.3316 3.92228 38.6568 3.84598 38.6557C3.17997 38.8845 3.13377 38.397 2.33424 38.7608C2.23082 38.808 2.0791 38.9381 1.87926 38.9757C1.52771 39.0418 1.10283 38.9726 0.843668 38.7728C0.435764 38.4598 0.0602346 37.8558 0.0602346 37.8558C-0.0694335 37.5508 0.00598745 37.358 0.410741 37.0697C0.579432 36.9629 0.61058 36.8829 0.89389 36.8636C1.03458 36.8106 0.996259 36.8916 1.24755 36.8019C1.39314 36.7498 1.39314 36.7869 1.68642 36.762C1.75362 36.7169 1.84811 36.7009 1.97463 36.66C2.20667 36.5838 2.43276 36.499 2.43276 36.499C2.43276 36.499 2.4919 36.4399 2.71502 36.461C2.90383 36.384 3.09772 36.2698 3.19712 36.2347C3.17192 35.937 3.20412 35.951 3.34271 35.8311C3.51542 35.6829 3.54657 35.7071 3.67519 35.7989C3.72944 35.7677 3.75551 35.7571 3.74956 35.7118C3.72839 35.5568 3.59487 35.4838 3.63512 35.142C3.5758 35.0051 3.48848 34.8361 3.50755 34.734C3.53572 34.6239 3.56285 34.5708 3.63004 34.5358C3.70144 34.498 3.72454 34.549 3.76269 34.5917C3.83093 34.6708 3.88623 34.9049 3.88623 34.9049C3.91038 35.169 3.99262 35.5109 4.25476 35.3179C4.40945 35.1619 4.43955 34.746 4.75488 34.8351L4.97992 35.0298C5.17084 34.8511 5.17993 34.8511 5.29438 34.7791C5.29438 34.7791 5.11554 34.5992 5.27233 34.4591C5.37977 34.364 5.50927 34.2959 5.73938 34.0421C6.3711 33.3472 6.69553 33.0401 7.37869 32.4801C8.74169 31.3642 10.2925 30.5815 11.2778 30.1924C11.5991 29.7863 11.9116 29.5165 12.6247 29.4484C13.4724 28.0234 15.0956 26.7509 15.4683 26.548C15.7716 26.0008 15.9032 26.059 16.2999 25.9491C16.6142 25.6982 16.6856 25.6982 16.8263 25.4362C16.9629 24.8955 16.5109 23.4506 17.6648 23.3776C17.91 23.0328 17.8487 23.1156 18.1219 22.7897C17.9371 22.3357 17.8608 21.956 17.8106 21.6288C17.8015 21.5908 17.3526 21.2759 17.48 20.8648C17.2893 20.6388 16.9327 20.1116 16.8212 19.8645C16.7701 19.8656 16.7277 19.8464 16.6716 19.8388C16.6133 19.8295 16.5409 19.8328 16.4597 19.8259C16.2799 20.2875 16.0841 20.3218 15.7646 20.4237C15.1941 21.634 14.9932 22.1464 13.3791 23.1469C12.7383 23.8612 12.5334 24.6569 12.5364 24.645C12.4259 24.8809 12.465 25.211 12.5232 25.388C12.4389 25.65 12.4609 25.6759 12.4609 25.6759C12.4961 25.7749 12.5876 25.9059 12.7 25.9338C12.8939 25.9848 13.0878 25.9766 13.0766 26.1916C13.0505 26.4605 12.696 26.4165 12.5281 26.3865C11.8823 26.2844 12.0863 25.8655 11.6733 26.0053C11.3569 26.2114 11.2385 26.8194 10.7221 26.7405C10.6538 26.6955 10.6748 26.5626 10.721 26.4666C10.7935 26.3166 10.9219 26.1926 10.8456 26.1363C10.5089 26.2437 10.1727 26.3527 9.83714 26.4635C9.52075 26.5494 9.1741 26.3924 9.48558 26.1853C9.6303 26.1294 9.83714 26.0592 10.0923 25.8965C10.0923 25.8965 10.2237 25.7184 9.9717 25.8075C9.69644 25.9054 9.29064 25.9663 8.99946 25.9344C8.99946 25.9344 8.39574 25.8555 8.31839 25.8083C8.24 25.7611 8.16878 25.5754 8.35759 25.5765C8.59663 25.5786 9.19527 25.5084 9.65935 25.3854C9.88333 25.2985 10.3093 25.0476 10.5483 24.9295C10.5483 24.9295 10.8075 24.5536 10.9501 24.4796C11.1881 24.2068 11.389 24.0456 11.5998 23.7666C11.8058 23.3434 12.0187 22.6738 12.7007 21.6368C13.016 21.1588 13.4078 20.6021 13.9009 20.1042C13.9009 20.1042 14.0285 19.3075 14.6704 18.7404C14.8121 18.4084 15.027 18.0175 15.2389 17.6555C15.3213 17.5165 15.3996 17.3956 15.478 17.2636C15.6769 16.9527 15.8859 16.3738 16.6612 16.2827C16.6612 16.2827 16.9927 16.0388 17.1202 15.8655C17.3192 15.6965 17.2739 15.4337 17.4356 15.2485C17.1885 15.0086 16.5568 14.5576 16.4954 13.9307C16.4301 13.2658 16.6681 12.7188 17.0719 12.314C17.5199 11.868 17.992 11.645 18.5655 11.679C19.2816 11.7849 19.4172 12.021 19.6452 12.2549C19.8641 12.4768 19.9455 12.334 20.0379 12.5939C20.6386 12.7529 20.6054 12.6829 20.6003 13.1229C20.6927 13.2468 20.8474 13.3619 20.8453 13.6189C21.0472 13.2018 21.0873 13.125 21.6268 12.666C21.7543 12.2931 21.841 11.9262 21.953 11.5532C22.0581 11.2083 22.1888 10.8533 22.2902 10.5863C22.1827 9.83234 22.4034 9.70744 22.6979 9.04654C22.6457 8.95561 22.6569 8.92965 22.679 8.78054C22.7934 8.34365 22.9723 7.76567 23.0787 7.3887C23.0787 7.3887 23.1138 7.23872 23.2696 7.22774C23.4043 6.75079 23.6063 5.86291 23.6402 5.68192C23.7788 5.18302 23.6894 5.02293 23.583 4.74195C23.5489 4.64997 23.5648 4.51897 23.5058 4.41689C23.338 4.12599 23.1574 3.74798 23.0349 3.47797C22.9555 3.30604 22.8298 2.65802 22.8298 2.65802C22.722 2.32722 22.8155 2.6582 22.8155 2.6582Z" fill="black" fill-opacity="0.3"/>
</g>
<defs>
<clipPath id="clip0_138_23132">
<rect width="42" height="39" fill="white"/>
</clipPath>
</defs>
</svg>
