<svg width="52" height="47" viewBox="0 0 52 47" fill="none" xmlns="http://www.w3.org/2000/svg">
<path d="M0.905176 0.863281C0.637057 0.88461 0.427248 1.10354 0.417242 1.37254C0.407231 1.64154 0.600486 1.87528 0.866432 1.91619L9.69971 3.1058L17.0122 32.8829C17.0753 33.1118 17.2821 33.2711 17.5193 33.2729H44.8004C45.0376 33.2711 45.2443 33.1118 45.307 32.8829L51.5662 7.88386H51.5666C51.608 7.72281 51.5718 7.55175 51.4682 7.42161C51.3651 7.29103 51.2062 7.21704 51.0399 7.22095H44.6245C44.3286 7.22095 44.0883 7.46121 44.0883 7.7572C44.0883 8.05362 44.3286 8.29345 44.6245 8.29345H50.3574L44.3707 32.2205H17.9488L10.6554 2.52145H10.6559C10.6002 2.31209 10.4226 2.15757 10.2071 2.13145L1.00289 0.883561H1.00332C0.971548 0.873985 0.938904 0.867456 0.905823 0.863974L0.905176 0.863281ZM27.6982 1.7991V1.79954C27.5841 1.82391 27.4814 1.88572 27.4057 1.97495L22.6282 7.59073C22.4915 7.74917 22.4606 7.97289 22.549 8.16223C22.6373 8.35157 22.8288 8.4717 23.0378 8.46823H24.442V15.6445C24.442 15.9404 24.6818 16.1807 24.9782 16.1807C25.2742 16.1807 25.5145 15.9404 25.5145 15.6445V7.9415C25.5188 7.79569 25.4627 7.65423 25.3595 7.55063C25.2559 7.44748 25.1145 7.39132 24.9687 7.39568H24.1887L27.8158 3.16396L31.3258 7.43435H30.5458L30.5453 7.43478C30.4026 7.43565 30.2663 7.49398 30.1675 7.5967C30.0683 7.69942 30.0147 7.83784 30.0191 7.9806V15.5861H28.6149C28.4094 15.5904 28.2249 15.7127 28.1413 15.9007C28.0577 16.0888 28.0904 16.3077 28.2249 16.4636L33.0024 22.0793C33.1034 22.1947 33.2487 22.2613 33.402 22.2613C33.5556 22.2613 33.701 22.1947 33.802 22.0793L38.4427 16.4243C38.5798 16.2663 38.6107 16.0426 38.5224 15.8528C38.434 15.6635 38.2425 15.5438 38.0332 15.5468H36.6682V8.40927V8.40971C36.6682 8.11328 36.4283 7.87346 36.1319 7.87346C35.8359 7.87346 35.5957 8.11328 35.5957 8.40971V16.0921C35.5978 16.382 35.8324 16.6166 36.1223 16.6188H36.9023L33.3923 20.9088L29.7652 16.6581H30.5648V16.6576C30.8547 16.6554 31.0893 16.4213 31.0911 16.1314V8.50676H32.4561C32.6654 8.50981 32.8569 8.3901 32.9453 8.20033C33.0336 8.01099 33.0027 7.78726 32.8656 7.62926L28.2249 1.99387V1.99344C28.1008 1.83326 27.8967 1.75795 27.6982 1.79844L27.6982 1.7991ZM22.6282 37.3281C20.1454 37.3281 18.1236 39.35 18.1236 41.8327C18.1236 44.315 20.145 46.3373 22.6282 46.3373C25.1114 46.3373 27.1524 44.3155 27.1524 41.8327C27.1524 39.35 25.1115 37.3281 22.6282 37.3281ZM39.6712 37.3281C37.1884 37.3281 35.1666 39.35 35.1666 41.8327C35.1666 44.315 37.188 46.3373 39.6712 46.3373C42.1539 46.3373 44.1954 44.3155 44.1954 41.8327C44.1954 39.35 42.1545 37.3281 39.6712 37.3281ZM22.6282 38.4006C24.5382 38.4006 26.0799 39.9236 26.0799 41.8327C26.0799 43.7418 24.5382 45.2844 22.6282 45.2844C20.7182 45.2844 19.1961 43.7418 19.1961 41.8327C19.1961 39.9236 20.7182 38.4006 22.6282 38.4006ZM39.6712 38.4006C41.5812 38.4006 43.1229 39.9236 43.1229 41.8327C43.1229 43.7418 41.5812 45.2844 39.6712 45.2844C37.7612 45.2844 36.2391 43.7418 36.2391 41.8327C36.2391 39.9236 37.7612 38.4006 39.6712 38.4006Z" fill="black"/>
</svg>
