<svg width="54" height="43" viewBox="0 0 54 43" fill="none" xmlns="http://www.w3.org/2000/svg">
<path d="M1.35 0.731322C1.07137 0.784335 0.850826 1.05577 0.855918 1.3395C0.854221 13.1 0.855918 24.8496 0.855918 36.6013C0.855918 36.9194 1.14559 37.2091 1.46409 37.2091H8.15187C8.1646 37.2095 8.17732 37.2095 8.19004 37.2091C8.49794 39.9352 10.8174 42.0728 13.6242 42.0728C16.4241 42.0728 18.7419 39.9454 19.0583 37.2282C19.071 37.2222 19.0837 37.2159 19.0964 37.2095H38.5524C38.5652 37.2099 38.5779 37.2099 38.5906 37.2095C38.8985 39.9356 41.2179 42.0732 44.0247 42.0732C46.8311 42.0732 49.1509 39.9353 49.4588 37.2095C49.4715 37.2099 49.4843 37.2099 49.497 37.2095H52.537C52.8555 37.2095 53.1447 36.9198 53.1452 36.6018V23.2269C53.1464 23.0984 53.1061 22.9703 53.0311 22.8659L44.5748 10.7059C44.4577 10.5469 44.2592 10.4515 44.0616 10.4591H37.3357V1.33955C37.3357 1.02105 37.046 0.731802 36.7275 0.731378H19.7035C19.6658 0.727561 19.6276 0.727561 19.5894 0.731378C19.2709 0.761066 19.0084 1.07787 19.0385 1.39638C19.0682 1.71488 19.385 1.97699 19.7035 1.94729H36.1195C36.1187 10.0528 36.1195 19.0343 36.1195 26.2651H2.07262V1.94729H16.0566C16.3777 1.95153 16.6733 1.6606 16.6733 1.33912C16.6733 1.01807 16.3781 0.72671 16.0566 0.731368H1.35062L1.35 0.731322ZM37.336 11.6742H43.7578L51.3769 22.6172H37.3364L37.336 11.6742ZM37.336 23.8331H51.928V35.9921H49.4962H49.4771C49.1709 33.2646 46.8316 31.1284 44.0244 31.1284C41.218 31.1284 38.8982 33.2659 38.5902 35.9921C38.5775 35.9916 38.5648 35.9916 38.5521 35.9921H19.0961C19.0834 35.9916 19.0706 35.9916 19.0579 35.9921C18.75 33.2659 16.4306 31.1284 13.6238 31.1284C10.8174 31.1284 8.4976 33.2659 8.18969 35.9921C8.17697 35.9916 8.16424 35.9916 8.15152 35.9921H2.07152C2.07279 33.1543 2.07152 30.3107 2.07152 27.4806H36.7275C37.046 27.4806 37.3353 27.1909 37.3357 26.8729V23.8329L37.336 23.8331ZM13.624 32.3446C15.9816 32.3446 17.8799 34.2429 17.8799 36.6001C17.8799 38.9577 15.9816 40.8555 13.624 40.8555C11.2664 40.8555 9.36811 38.9573 9.36811 36.6001C9.36811 34.2424 11.2664 32.3446 13.624 32.3446ZM44.024 32.3446C46.3816 32.3446 48.2799 34.2429 48.2799 36.6001C48.2799 38.9577 46.3816 40.8555 44.024 40.8555C41.6664 40.8555 39.7681 38.9573 39.7681 36.6001C39.7681 34.2424 41.6664 32.3446 44.024 32.3446Z" fill="black"/>
</svg>
