<svg width="475" height="64" viewBox="0 0 475 64" fill="none" xmlns="http://www.w3.org/2000/svg">
<path d="M1 1C8.8881 9.02572 17.1177 19.796 27.1246 25.4525C30.7751 27.5159 35.383 28.5132 39.3531 29.7658C49.2506 32.8883 59.0428 35.3967 69.3995 36.4374C82.1156 37.7153 95.076 37.8264 107.845 37.8649C126.716 37.9216 145.489 37.9815 164.294 36.1892C201.478 32.6451 238.26 25.8988 275.339 21.3874C314.534 16.6186 353.373 13.8779 392.838 13.3193C405.601 13.1387 418.338 12.2203 431.099 12.1712C441.573 12.1308 452.85 11.0331 463.214 12.8539C465.405 13.2388 472.218 13.7386 473.682 15.8639C475.837 18.9918 466.383 25.4148 464.727 26.7558C455.453 34.2669 444.302 39.1574 433.446 43.8849C420.243 49.6341 406.605 54.584 392.437 57.2903C383.631 58.9723 374.678 59.6727 365.88 61.3243C363.237 61.8204 360.827 61.7839 358.407 63" stroke="#EE523F" stroke-linecap="round"/>
</svg>
