<svg width="45" height="51" viewBox="0 0 45 51" fill="none" xmlns="http://www.w3.org/2000/svg">
<path d="M22.503 0.589844C21.9439 0.589844 21.5565 0.805084 21.1349 1.03611C20.7136 1.26752 20.2874 1.54898 19.868 1.83623C19.4487 2.12348 19.0367 2.41841 18.6941 2.63789C18.3514 2.85776 18.0387 3.00099 18.0102 3.0083C17.9813 3.01562 17.6406 3.04411 17.2336 3.02524C16.8266 3.00599 16.3307 2.96364 15.8235 2.92398C15.3164 2.88471 14.8016 2.84659 14.3207 2.8566C13.8402 2.86661 13.4031 2.87239 12.9191 3.15155C12.4351 3.4307 12.2064 3.80227 11.9573 4.21277C11.7082 4.62323 11.4844 5.09567 11.265 5.55353C11.0455 6.01173 10.8353 6.45569 10.6485 6.81683C10.4618 7.178 10.2635 7.46293 10.2427 7.48372C10.2219 7.50451 9.93926 7.70165 9.57732 7.88802C9.21537 8.07438 8.76103 8.28384 8.302 8.50294C7.84297 8.72203 7.37905 8.95344 6.96784 9.20219C6.55663 9.45093 6.18273 9.67232 5.90316 10.1556C5.6236 10.6388 5.61823 11.0739 5.60822 11.5537C5.59821 12.0335 5.63594 12.5483 5.6756 13.0546C5.71488 13.561 5.75723 14.0549 5.77648 14.4613C5.79573 14.8675 5.76762 15.2094 5.75954 15.2379C5.75222 15.2668 5.60051 15.5779 5.38065 15.9202C5.1604 16.2625 4.87509 16.6737 4.58707 17.0927C4.29944 17.5116 4.01528 17.944 3.78349 18.3645C3.55169 18.7849 3.33722 19.1642 3.33722 19.7221C3.33722 20.2804 3.55208 20.6578 3.78349 21.0782C4.01529 21.4987 4.29945 21.933 4.58707 22.3516C4.8747 22.7705 5.1604 23.1717 5.38065 23.514C5.6009 23.8563 5.75183 24.1678 5.75954 24.1963C5.76685 24.2248 5.79573 24.5667 5.77648 24.973C5.75723 25.3792 5.71487 25.8817 5.6756 26.388C5.63633 26.8943 5.59821 27.4091 5.60822 27.8889C5.61823 28.3687 5.62362 28.8038 5.90316 29.2871C6.1827 29.7703 6.55659 29.9921 6.96784 30.2404C7.21079 30.3875 7.47301 30.5273 7.74101 30.6632L0.780191 42.7116C0.619628 42.9892 0.626172 43.3331 0.797133 43.6041C0.968479 43.8756 1.27575 44.0292 1.59572 44.0038L9.02436 43.3989L12.2152 50.1222C12.3531 50.4094 12.638 50.5973 12.9564 50.6108C13.2749 50.6239 13.5748 50.4606 13.7361 50.1861L20.702 38.1485C20.8464 38.2386 20.9912 38.3307 21.1348 38.4096C21.556 38.641 21.9438 38.8559 22.5028 38.8559C23.0619 38.8559 23.4412 38.6406 23.8624 38.4096C24.0276 38.3187 24.1936 38.2148 24.3595 38.1096L31.258 50.0397H31.2576C31.4178 50.3181 31.7196 50.4845 32.0408 50.471C32.3619 50.4575 32.6487 50.2665 32.7854 49.9758L35.9759 43.2595L43.4065 43.8574C43.7261 43.8825 44.033 43.7284 44.2035 43.4574C44.3741 43.1863 44.3807 42.8428 44.2201 42.5656L37.3167 30.6335C37.5631 30.5072 37.8033 30.3783 38.0274 30.2427C38.4387 29.994 38.8125 29.7726 39.0921 29.2893C39.3716 28.8061 39.377 28.371 39.3871 27.8912C39.3967 27.4114 39.3674 26.8966 39.3281 26.3903C39.2889 25.8839 39.238 25.3815 39.2188 24.9753C39.1992 24.569 39.2346 24.2271 39.2442 24.1986C39.2507 24.1701 39.3963 23.8586 39.6165 23.5163C39.8364 23.174 40.1221 22.7728 40.4101 22.3539C40.6981 21.935 40.9888 21.501 41.2202 21.0805C41.452 20.6601 41.66 20.2827 41.66 19.7244C41.66 19.1661 41.452 18.7872 41.2202 18.3668C40.9884 17.9463 40.6977 17.5135 40.4101 17.095C40.1221 16.6761 39.8368 16.2648 39.6165 15.9225C39.3967 15.5802 39.2519 15.2687 39.2442 15.2402C39.2377 15.2117 39.2003 14.8698 39.2188 14.4636C39.2384 14.0573 39.2889 13.5633 39.3281 13.0569C39.3674 12.5506 39.3971 12.0358 39.3871 11.556C39.3774 11.0762 39.3713 10.6411 39.0921 10.1579C38.8126 9.67463 38.4387 9.45284 38.0274 9.20448C37.6162 8.95575 37.1538 8.72433 36.6948 8.50524C36.2357 8.28614 35.7814 8.07668 35.4194 7.89032C35.0574 7.70396 34.7733 7.50682 34.7525 7.48602C34.7318 7.46522 34.5334 7.18029 34.3467 6.81912C34.16 6.45795 33.9497 6.01399 33.7302 5.55583C33.5108 5.09763 33.2871 4.62556 33.0379 4.21506C32.7888 3.8046 32.5601 3.43265 32.0761 3.15384C31.5921 2.87469 31.1551 2.86891 30.6745 2.8589C30.194 2.84888 29.6791 2.88701 29.1717 2.92628C28.6646 2.96555 28.1686 3.00829 27.7616 3.02754C27.3546 3.04679 27.0135 3.0183 26.985 3.0106C26.9561 3.00328 26.6438 2.85967 26.3012 2.64019C25.9585 2.41956 25.5465 2.12461 25.1272 1.83737C24.7079 1.55013 24.2832 1.26866 23.8619 1.03725C23.4407 0.805832 23.0618 0.590602 22.5027 0.590602L22.503 0.589844ZM22.503 2.31642C22.4325 2.31642 22.7032 2.36879 23.0251 2.54552C23.347 2.72225 23.7513 2.98332 24.1571 3.26132C24.5629 3.53932 24.9726 3.83503 25.365 4.08685C25.7573 4.33829 26.0939 4.54929 26.5375 4.66788C26.9811 4.78647 27.3807 4.76568 27.8462 4.74373C28.3121 4.7214 28.8157 4.68059 29.3066 4.64247C29.7976 4.60435 30.2735 4.57586 30.6408 4.58356C31.0081 4.59088 31.2761 4.67751 31.2153 4.64247C31.1545 4.60743 31.3701 4.79341 31.5607 5.10761C31.7509 5.42142 31.965 5.8519 32.1771 6.2951C32.3897 6.73867 32.5968 7.19726 32.8105 7.61083C33.0242 8.02437 33.2117 8.38169 33.5367 8.70586C33.8613 9.03007 34.2121 9.20835 34.6268 9.42166C35.0411 9.63498 35.5086 9.85137 35.9525 10.0635C36.3969 10.2757 36.8189 10.4882 37.1334 10.6784C37.448 10.8687 37.6336 11.0762 37.5985 11.0154C37.5635 10.9545 37.6586 11.2214 37.6659 11.5883C37.6725 11.9553 37.6463 12.4308 37.607 12.921C37.5689 13.4112 37.5196 13.9217 37.4977 14.3865C37.4749 14.8516 37.4549 15.2424 37.5735 15.6852C37.6925 16.128 37.9127 16.4642 38.1649 16.8562C38.4168 17.2478 38.7052 17.6655 38.9835 18.0706C39.2619 18.476 39.5241 18.8691 39.7013 19.1906C39.8784 19.5121 39.9373 19.7932 39.9373 19.7231C39.9373 19.6531 39.8784 19.9322 39.7013 20.2537C39.5241 20.5752 39.2619 20.9688 38.9835 21.3738C38.7052 21.7793 38.4168 22.1966 38.1649 22.5882C37.9131 22.9798 37.6925 23.3078 37.5735 23.7507C37.4545 24.1935 37.4757 24.5927 37.4977 25.0579C37.5204 25.523 37.5689 26.0251 37.607 26.5149C37.6451 27.0051 37.6736 27.4806 37.6659 27.8476C37.6594 28.2145 37.5635 28.481 37.5985 28.4201C37.6336 28.3593 37.448 28.5753 37.1334 28.7655C36.8188 28.9557 36.3968 29.1683 35.9525 29.3804C35.5086 29.5926 35.0411 29.809 34.6268 30.0223C34.2125 30.2356 33.8617 30.4143 33.5367 30.7381C33.2121 31.0623 33.0246 31.4112 32.8105 31.8247C32.5968 32.2382 32.3897 32.7053 32.1771 33.1489C31.9646 33.5925 31.7509 34.0141 31.5607 34.3283C31.3705 34.6421 31.1545 34.8284 31.2153 34.793C31.2761 34.758 31.0081 34.8527 30.6408 34.8604C30.2735 34.8677 29.7976 34.8396 29.3066 34.8015C28.8161 34.7638 28.3121 34.7145 27.8462 34.6925C27.3807 34.6702 26.981 34.6498 26.5375 34.7684C26.0939 34.887 25.7574 35.1064 25.365 35.3579C24.9726 35.6093 24.5629 35.9054 24.1571 36.1834C23.7512 36.4614 23.3469 36.724 23.0251 36.9007C22.7028 37.0779 22.4325 37.1283 22.503 37.1283C22.5734 37.1283 22.2927 37.0779 21.9704 36.9007C21.6486 36.724 21.2527 36.4614 20.8469 36.1834C20.4411 35.9054 20.0249 35.6093 19.6325 35.3579C19.2402 35.1064 18.9017 34.887 18.4581 34.7684C18.0146 34.6498 17.6149 34.6706 17.1494 34.6925C16.6835 34.7149 16.1799 34.7638 15.689 34.8019C15.198 34.84 14.7221 34.8685 14.3548 34.8612C13.9871 34.8535 13.7195 34.7584 13.7803 34.7938C13.8412 34.8288 13.6252 34.6425 13.4349 34.3286C13.2447 34.0148 13.0306 33.5928 12.8185 33.1492C12.606 32.7061 12.3988 32.239 12.1851 31.8254C11.9714 31.4115 11.792 31.063 11.4674 30.7389C11.1428 30.4147 10.7851 30.2364 10.3708 30.0227C9.95646 29.8094 9.48901 29.593 9.04508 29.3812C8.60074 29.1691 8.1768 28.9561 7.86262 28.7663C7.54804 28.5761 7.36398 28.3601 7.39902 28.4209C7.43406 28.4817 7.33742 28.2149 7.3301 27.8483C7.32279 27.4814 7.35089 27.0059 7.38901 26.5157C7.42713 26.0255 7.47834 25.5234 7.50029 25.0587C7.52262 24.5935 7.54342 24.1943 7.42444 23.7514C7.30546 23.3082 7.08521 22.9806 6.83301 22.589C6.58119 22.197 6.29279 21.7796 6.0144 21.3742C5.73602 20.9687 5.4738 20.5756 5.29669 20.2541C5.11957 19.9326 5.05911 19.6534 5.05911 19.7235C5.05911 19.7936 5.11956 19.5129 5.29669 19.191C5.47381 18.8695 5.73602 18.476 6.0144 18.0709C6.29279 17.6655 6.58119 17.2481 6.83301 16.8565C7.08483 16.4649 7.30546 16.1284 7.42444 15.6856C7.54341 15.2428 7.52224 14.8516 7.50029 14.3868C7.47796 13.9217 7.42713 13.4111 7.38901 12.9214C7.35089 12.4312 7.3224 11.9557 7.3301 11.5887C7.33742 11.2217 7.43445 10.9553 7.39902 11.0157C7.36399 11.0766 7.54804 10.869 7.86223 10.6788C8.17681 10.4886 8.60075 10.2761 9.0447 10.0639C9.48865 9.85175 9.9561 9.63534 10.3704 9.42203C10.7847 9.20872 11.1424 9.03005 11.467 8.70624C11.7916 8.38203 11.971 8.02509 12.1847 7.61121C12.3984 7.19767 12.6056 6.73908 12.8181 6.29548C13.0303 5.8519 13.2444 5.42181 13.4346 5.10799C13.6248 4.79417 13.8408 4.60781 13.7799 4.64285C13.7191 4.67788 13.9871 4.59164 14.3544 4.58394C14.7218 4.57662 15.1977 4.60473 15.6886 4.64285C16.1795 4.68097 16.6836 4.72178 17.149 4.74411C17.6149 4.76644 18.0142 4.78685 18.4578 4.66826C18.9013 4.54966 19.2394 4.33865 19.6318 4.08723C20.0241 3.83579 20.4403 3.53969 20.8461 3.26169C21.252 2.98369 21.6478 2.72262 21.9697 2.54589C22.2916 2.36916 22.5723 2.3168 22.5022 2.3168L22.503 2.31642ZM22.498 7.90227C15.9722 7.90227 10.6625 13.2025 10.6625 19.72C10.6625 26.2368 15.9726 31.5377 22.498 31.5377C29.0237 31.5377 34.3334 26.2375 34.3334 19.72C34.3334 13.2031 29.0233 7.90227 22.498 7.90227ZM22.498 9.62884C28.0927 9.62884 32.6084 14.1362 32.6084 19.7196C32.6084 25.3028 28.0927 29.8123 22.498 29.8123C16.9032 29.8123 12.3875 25.3031 12.3875 19.7196C12.3875 14.1364 16.9032 9.62884 22.498 9.62884ZM27.1524 15.6698V15.6702C26.9283 15.6771 26.7154 15.7707 26.5594 15.9316L20.8738 21.6877L18.4415 19.2365C18.2813 19.0679 18.0603 18.9708 17.8277 18.967C17.5951 18.9635 17.3711 19.0536 17.2059 19.2173C17.0407 19.3809 16.9483 19.6042 16.9498 19.8368C16.951 20.069 17.0461 20.2912 17.2132 20.4529L20.2624 23.5205C20.4245 23.6853 20.6459 23.7781 20.8773 23.7781C21.1083 23.7781 21.3301 23.6853 21.4922 23.5205L27.7873 17.1411C28.036 16.8908 28.1077 16.5146 27.9679 16.1908C27.8277 15.867 27.5051 15.6606 27.1524 15.6702L27.1524 15.6698ZM35.7639 31.3841L41.9042 42.0032L35.5244 41.488C35.1655 41.4568 34.8247 41.6524 34.6703 41.9781L31.933 47.7526L25.7977 37.1483C25.9652 37.0347 26.1543 36.9023 26.3014 36.8079C26.6441 36.5881 26.9567 36.4433 26.9852 36.4356C27.0141 36.4283 27.3548 36.3998 27.7618 36.4187C28.1688 36.4379 28.6648 36.4803 29.1719 36.5199C29.679 36.5592 30.1938 36.5889 30.6747 36.5788C31.1553 36.5688 31.5923 36.5631 32.0763 36.2839C32.5603 36.0047 32.789 35.6332 33.0381 35.2227C33.2873 34.8122 33.511 34.3482 33.7305 33.89C33.9499 33.4318 34.1602 32.9794 34.3469 32.6182C34.5336 32.257 34.7319 31.9737 34.7527 31.9529C34.7735 31.9321 35.0577 31.7334 35.4196 31.547C35.5171 31.497 35.6541 31.4361 35.7635 31.3838L35.7639 31.3841ZM9.30239 31.416C9.38826 31.4576 9.49877 31.5073 9.57693 31.5473C9.93888 31.7337 10.2215 31.9323 10.2423 31.9531C10.2631 31.9739 10.4614 32.2573 10.6481 32.6185C10.8349 32.9797 11.0451 33.4321 11.2646 33.8903C11.4841 34.3485 11.7078 34.8121 11.9569 35.223C12.206 35.6334 12.4347 36.005 12.9187 36.2842C13.4027 36.5633 13.8398 36.5691 14.3203 36.5791C14.8009 36.5891 15.3157 36.5595 15.8231 36.5202C16.3302 36.4809 16.8262 36.4382 17.2332 36.4189C17.6402 36.3997 17.9813 36.4282 18.0098 36.4359C18.0387 36.4432 18.351 36.5884 18.6937 36.8082C18.8589 36.9141 19.0695 37.0597 19.2597 37.189L13.067 47.8998L10.3228 42.1184C10.1699 41.7957 9.83343 41.6005 9.47726 41.6282L3.09131 42.1504L9.30239 31.416Z" fill="black"/>
</svg>
