<svg width="41" height="41" viewBox="0 0 41 41" fill="none" xmlns="http://www.w3.org/2000/svg">
<path d="M40.156 0.0390625H0.844C0.565558 0.0390625 0.339855 0.264414 0.339855 0.543207V8.53602C0.339855 8.81446 0.565207 9.04016 0.844 9.04016H2.49982L2.49947 39.8553C2.49947 40.1337 2.72482 40.3594 3.00361 40.3594H37.9956C38.2741 40.3594 38.4998 40.134 38.4998 39.8553V9.04016H40.1553C40.4337 9.04016 40.6595 8.81481 40.6595 8.53602V0.543566C40.6595 0.264773 40.4341 0.0394226 40.1553 0.0394226L40.156 0.0390625ZM37.4925 39.3511H3.50764V9.03996H37.4925V39.3511ZM39.6522 8.03196H1.34818V1.04715H39.6522V8.03196Z" fill="black"/>
<path d="M14.0911 17.7234L16.5377 17.7286H16.5387C16.8168 17.7286 17.0422 17.5036 17.0429 17.2256C17.0432 16.9475 16.8186 16.7211 16.5398 16.7207L15.5951 16.7186C17.051 15.7817 18.7514 15.2677 20.5001 15.2677C25.5011 15.2677 29.5694 19.336 29.5694 24.337C29.5694 26.1542 29.034 27.9079 28.0204 29.408C27.865 29.639 27.9255 29.9518 28.1561 30.1079C28.2426 30.1659 28.3407 30.1941 28.4377 30.1941C28.5998 30.1941 28.7587 30.1164 28.8561 29.9722C29.9822 28.3048 30.5774 26.356 30.5774 24.3371C30.5774 18.7806 26.0567 14.2598 20.5001 14.2598C18.3727 14.2598 16.3059 14.9372 14.5942 16.1754L14.591 14.7629C14.5906 14.4848 14.3649 14.2598 14.0869 14.2598H14.0858C13.8074 14.2601 13.5824 14.4865 13.5827 14.7646L13.588 17.2203C13.5883 17.4984 13.8133 17.7234 14.0911 17.7237L14.0911 17.7234Z" fill="black"/>
<path d="M20.5 34.4143C22.627 34.4143 24.6829 33.7414 26.3911 32.5088L26.3939 33.9112C26.3943 34.1893 26.62 34.4143 26.8981 34.4143H26.8991C27.1776 34.414 27.4026 34.1875 27.4022 33.9095L27.3973 31.4485C27.3969 31.1704 27.1712 30.9454 26.8932 30.9454H24.4466C24.1682 30.9454 23.9425 31.1708 23.9425 31.4496C23.9425 31.728 24.1678 31.9537 24.4466 31.9537H25.4102C23.9537 32.8928 22.2553 33.4064 20.4999 33.4064C15.499 33.4064 11.4306 29.3381 11.4306 24.3371C11.4306 22.5199 11.966 20.7666 12.9796 19.2665C13.135 19.0355 13.0745 18.7226 12.8439 18.5665C12.6126 18.4111 12.2997 18.472 12.1439 18.7022C11.0179 20.3697 10.4227 22.3177 10.4227 24.3367C10.4227 29.8938 14.9434 34.4149 20.5 34.4149L20.5 34.4143Z" fill="black"/>
</svg>
