<svg width="55" height="6" viewBox="0 0 55 6" fill="none" xmlns="http://www.w3.org/2000/svg">
<path d="M8.61914 1.49852L9.53431 3.56682H7.69753L8.61269 1.49852H8.61915H8.61914ZM7.32218 4.46536H9.91611L10.4034 5.57268H11.4698L9.10639 0.425998H8.14512L5.78175 5.57268H6.83493L7.32218 4.46536V4.46536ZM39.7315 1.49852L40.6467 3.56682H38.8096L39.7248 1.49852H39.7315V1.49852ZM38.4346 4.46536H41.0282L41.5154 5.57268H42.5822L40.2185 0.425998H39.2572L36.8941 5.57268H37.9473L38.4346 4.46536V4.46536ZM28.7776 2.98893C28.7776 4.56292 29.8769 5.68423 31.4831 5.68423C32.5298 5.68423 33.0961 5.27317 33.5901 4.84162L33.0435 4.0891C32.7078 4.36097 32.2335 4.73691 31.5031 4.73691C30.4892 4.73691 29.8043 4.01983 29.8043 2.98893C29.8043 1.95836 30.4825 1.26177 31.4634 1.26177C32.1219 1.26177 32.5563 1.48454 32.9184 1.80487L33.4582 1.04584C32.9513 0.599982 32.3589 0.314453 31.4634 0.314453C29.923 0.314453 28.7776 1.42893 28.7776 2.98893V2.98893ZM47.8884 1.00421C47.3024 0.558357 46.7626 0.314453 45.8607 0.314453C44.2938 0.314453 43.1419 1.41494 43.1419 2.98893C43.1419 4.56975 44.2674 5.68423 45.8607 5.68423C46.8748 5.68423 47.5723 5.32195 48.1518 4.75805V2.77983H45.7949V3.65755H47.2299V4.33983C47.0261 4.51414 46.6046 4.75805 45.8871 4.75805C44.8668 4.75805 44.1555 4.01983 44.1555 2.98893C44.1555 1.95836 44.8733 1.25462 45.8607 1.25462C46.5456 1.25462 46.9932 1.49169 47.3486 1.76324L47.8884 1.00421V1.00421ZM3.18782 3.3369C3.42483 3.3369 3.5896 3.37202 3.72763 3.48324C3.85951 3.58796 3.95143 3.75512 3.95143 3.98471C3.95143 4.21463 3.85951 4.38861 3.72763 4.49333C3.5896 4.60455 3.42483 4.63252 3.18782 4.63252H1.25913V3.3369H3.18782ZM2.99692 1.36617C3.27359 1.36617 3.41838 1.42177 3.51706 1.51934C3.60928 1.62405 3.66185 1.75641 3.66185 1.90243C3.66185 2.04877 3.60928 2.18113 3.51706 2.28552C3.41838 2.38275 3.27359 2.43869 2.99692 2.43869H1.25913V1.36617H2.99692ZM17.2039 5.57268H21.3118V4.63252H18.1652V3.3369H20.5218V2.43869H18.1652V1.36617H21.1802V0.425998H17.2039V5.57268ZM51.8518 1.49852L52.7667 3.56682H50.9299L51.845 1.49852H51.8518V1.49852ZM50.5548 4.46536H53.1485L53.6357 5.57268H54.7021L52.3387 0.425998H51.3778L49.0141 5.57268H50.0676L50.5548 4.46536ZM35.7813 0.425998H34.82V5.57268H35.7813V0.425998ZM15.874 4.63252H13.5436V0.425998H12.5823V5.57268H15.874V4.63252V4.63252ZM23.761 4.01268C23.761 2.91934 23.7148 1.95836 23.7148 1.95836H23.7281C23.7281 1.95836 24.1756 2.63381 24.9921 3.69918L26.4274 5.57268H27.3687V0.425998H26.4074V2.01397C26.4074 3.10731 26.4468 4.07544 26.4468 4.07544H26.4339C26.4339 4.07544 25.986 3.39999 25.1763 2.32714L23.7413 0.425998H22.7997V5.57268H23.761V4.01268V4.01268ZM3.2536 5.57268C3.80664 5.57268 4.14233 5.44748 4.40578 5.23154C4.75469 4.94601 4.97203 4.50016 4.97203 3.9639C4.97203 3.20487 4.498 2.80097 4.10298 2.69625V2.68259C4.47833 2.50145 4.68245 2.09039 4.68245 1.68649C4.68245 1.22698 4.51122 0.90665 4.24131 0.704698C3.97786 0.509576 3.6225 0.425998 3.00368 0.425998H0.297852V5.57268H3.2536Z" fill="#141414" fill-opacity="0.3"/>
</svg>
