<svg width="22" height="22" viewBox="0 0 22 22" fill="none" xmlns="http://www.w3.org/2000/svg">
<path d="M14.4311 6.78103L14.5447 7.02217L14.8082 7.06228L21.2304 8.03967C21.2306 8.03969 21.2308 8.03972 21.2309 8.03975C21.3878 8.06448 21.5261 8.22803 21.4957 8.43447L21.4957 8.43447L21.495 8.43977C21.4841 8.5195 21.4486 8.59017 21.3973 8.64293C21.3972 8.64304 21.3971 8.64315 21.397 8.64326L16.7501 13.3875L16.573 13.5684L16.6139 13.8182L17.712 20.5186L17.712 20.519C17.7466 20.7292 17.6094 20.8957 17.4562 20.9234L17.4555 20.9235C17.3936 20.9348 17.3293 20.9242 17.2749 20.8939L17.2726 20.8926L11.5268 17.7292L11.2856 17.5964L11.0445 17.7292L5.29867 20.8926L5.29789 20.8931C5.24852 20.9204 5.19474 20.9317 5.14212 20.9278C5.08946 20.9239 5.03669 20.9045 4.99004 20.869C4.94315 20.8333 4.90386 20.7824 4.87959 20.7198C4.85528 20.6571 4.84793 20.5873 4.85918 20.5193L4.85928 20.5186L5.95733 13.8182L5.99828 13.5684L5.82112 13.3875L1.17336 8.64233L1.17333 8.6423C1.11176 8.57945 1.07258 8.48883 1.07132 8.38907C1.07006 8.28961 1.10672 8.19785 1.1667 8.13296C1.21699 8.07952 1.27752 8.04915 1.33796 8.04011L1.33921 8.03992L7.76308 7.06228L8.0266 7.02217L8.14018 6.78103L11.0107 0.687049C11.0108 0.686736 11.011 0.686424 11.0111 0.686111C11.0963 0.508915 11.2803 0.461814 11.4153 0.531601L11.4159 0.531906C11.4743 0.561995 11.5263 0.614076 11.5592 0.684251L11.5594 0.684676L14.4311 6.78103Z" stroke="#FF9E0D"/>
</svg>
