<svg width="22" height="22" viewBox="0 0 22 22" fill="none" xmlns="http://www.w3.org/2000/svg">
<path d="M21.3073 7.54561L14.8834 6.56797L12.0118 0.47161C11.9333 0.304695 11.8043 0.169574 11.6449 0.0874413C11.2451 -0.119215 10.7594 0.0529986 10.5595 0.47161L7.68785 6.56797L1.26399 7.54561C1.08688 7.5721 0.924954 7.65953 0.800981 7.79201C0.651103 7.95332 0.568514 8.17035 0.57136 8.3954C0.574207 8.62044 0.662256 8.8351 0.816161 8.9922L5.46391 13.7373L4.36586 20.4378C4.34011 20.5936 4.35658 20.7539 4.41341 20.9005C4.47023 21.0471 4.56513 21.174 4.68735 21.267C4.80958 21.3599 4.95422 21.4152 5.1049 21.4264C5.25557 21.4377 5.40624 21.4045 5.53982 21.3306L11.2856 18.1672L17.0314 21.3306C17.1883 21.4181 17.3705 21.4472 17.545 21.4154C17.9853 21.3359 18.2813 20.8988 18.2054 20.4378L17.1073 13.7373L21.7551 8.9922C21.8816 8.86238 21.9651 8.69282 21.9904 8.50736C22.0587 8.0437 21.75 7.61449 21.3073 7.54561Z" fill="#FF9E0D"/>
</svg>
