<svg width="36" height="28" viewBox="0 0 36 28" fill="none" xmlns="http://www.w3.org/2000/svg">
<path d="M35.8841 22.3121C35.8841 25.4009 33.4368 27.916 30.4314 27.916H0.763672V5.72107C0.763672 2.63232 3.21094 0.117188 6.21635 0.117188H35.8841V22.3121Z" fill="white"/>
<path d="M26.2205 16.618H28.4745C28.5389 16.618 28.6892 16.5959 28.7536 16.5959C29.1829 16.5077 29.5479 16.1106 29.5479 15.559C29.5479 15.0295 29.1829 14.6324 28.7536 14.5221C28.6892 14.5 28.5604 14.5 28.4745 14.5H26.2205V16.618Z" fill="url(#paint0_linear_130_22753)"/>
<path d="M28.2168 1.98828C26.0701 1.98828 24.3098 3.77535 24.3098 6.00366V10.1735H29.8269C29.9557 10.1735 30.106 10.1735 30.2133 10.1955C31.4584 10.2617 32.3815 10.9236 32.3815 12.0709C32.3815 12.9754 31.7589 13.7476 30.5997 13.9021V13.9462C31.8663 14.0344 32.8323 14.7625 32.8323 15.8877C32.8323 17.1011 31.7589 17.8954 30.3421 17.8954H24.2883V26.0585H30.0201C32.1668 26.0585 33.9271 24.2714 33.9271 22.0431V1.98828H28.2168Z" fill="url(#paint1_linear_130_22753)"/>
<path d="M29.2688 12.3379C29.2688 11.8084 28.9039 11.4554 28.4745 11.3892C28.4316 11.3892 28.3242 11.3672 28.2598 11.3672H26.2205V13.3087H28.2598C28.3242 13.3087 28.4531 13.3087 28.4745 13.2866C28.9039 13.2204 29.2688 12.8674 29.2688 12.3379Z" fill="url(#paint2_linear_130_22753)"/>
<path d="M6.6243 1.99609C4.47758 1.99609 2.71727 3.78316 2.71727 6.01148V15.9176C3.8121 16.4691 4.94986 16.8221 6.08762 16.8221C7.44006 16.8221 8.16994 15.9837 8.16994 14.8365V10.1592H11.5188V14.8144C11.5188 16.6236 10.424 18.1017 6.71017 18.1017C4.45611 18.1017 2.6958 17.5943 2.6958 17.5943V26.0443H8.42755C10.5743 26.0443 12.3346 24.2572 12.3346 22.0289V1.99609H6.6243Z" fill="url(#paint3_linear_130_22753)"/>
<path d="M17.4236 1.99609C15.2769 1.99609 13.5166 3.78316 13.5166 6.01148V11.2624C14.5041 10.4019 16.2215 9.85036 18.9907 9.98273C20.472 10.0489 22.0606 10.4681 22.0606 10.4681V12.1669C21.2663 11.7477 20.3217 11.3727 19.0981 11.2844C16.9943 11.13 15.7277 12.189 15.7277 14.0422C15.7277 15.9176 16.9943 16.9766 19.0981 16.8001C20.3217 16.7118 21.2663 16.3147 22.0606 15.9176V17.6164C22.0606 17.6164 20.4935 18.0356 18.9907 18.1017C16.2215 18.2341 14.5041 17.6826 13.5166 16.8221V26.0884H19.2484C21.3951 26.0884 23.1554 24.3013 23.1554 22.073V1.99609H17.4236Z" fill="url(#paint4_linear_130_22753)"/>
<defs>
<linearGradient id="paint0_linear_130_22753" x1="24.3063" y1="15.5616" x2="33.9531" y2="15.5616" gradientUnits="userSpaceOnUse">
<stop stop-color="white"/>
<stop offset="0.2285"/>
<stop offset="0.7433" stop-color="#40A737"/>
<stop offset="1" stop-color="#5CB531"/>
</linearGradient>
<linearGradient id="paint1_linear_130_22753" x1="24.3059" y1="14.0138" x2="33.9535" y2="14.0138" gradientUnits="userSpaceOnUse">
<stop/>
<stop offset="0.2285"/>
<stop offset="0.7433" stop-color="#D3D3D3"/>
<stop offset="1" stop-color="white"/>
</linearGradient>
<linearGradient id="paint2_linear_130_22753" x1="24.306" y1="12.3352" x2="33.9532" y2="12.3352" gradientUnits="userSpaceOnUse">
<stop/>
<stop offset="0.2285"/>
<stop offset="0.7433"/>
<stop offset="1"/>
</linearGradient>
<linearGradient id="paint3_linear_130_22753" x1="2.71272" y1="14.0216" x2="12.5089" y2="14.0216" gradientUnits="userSpaceOnUse">
<stop stop-color="white"/>
<stop offset="0.4751" stop-color="#4E4E4E"/>
<stop offset="0.8261"/>
<stop offset="1" stop-color="#006FBC"/>
</linearGradient>
<linearGradient id="paint4_linear_130_22753" x1="13.4611" y1="14.0216" x2="22.9754" y2="14.0216" gradientUnits="userSpaceOnUse">
<stop stop-color="#F0F0F0"/>
<stop offset="0.1735" stop-color="white"/>
<stop offset="0.5731" stop-color="#1B1B1B"/>
<stop offset="0.8585"/>
<stop offset="1"/>
</linearGradient>
</defs>
</svg>
