<svg width="50" height="31" viewBox="0 0 50 31" fill="none" xmlns="http://www.w3.org/2000/svg">
<path d="M31.9744 3.26562H18.6384V27.225H31.9744V3.26562Z" fill="#353535"/>
<path d="M19.5275 15.2436C19.5275 10.3758 21.8159 6.0554 25.3275 3.26392C22.7431 1.23196 19.4831 0.00390625 15.9272 0.00390625C7.50344 0.00390625 0.6875 6.81985 0.6875 15.2436C0.6875 23.6674 7.50344 30.4833 15.9272 30.4833C19.4831 30.4833 22.7431 29.2552 25.3275 27.2233C21.811 24.4713 19.5275 20.1114 19.5275 15.2436Z" fill="white"/>
<path d="M49.9696 15.2436C49.9696 23.6674 43.1536 30.4833 34.7299 30.4833C31.1739 30.4833 27.9139 29.2552 25.3296 27.2233C28.8855 24.4269 31.1296 20.1114 31.1296 15.2436C31.1296 10.3758 28.8411 6.0554 25.3296 3.26392C27.909 1.23196 31.169 0.00390625 34.7249 0.00390625C43.1536 0.00390625 49.9696 6.86424 49.9696 15.2436Z" fill="#6C6C6C"/>
</svg>
