<svg width="87" height="22" viewBox="0 0 87 22" fill="none" xmlns="http://www.w3.org/2000/svg">
<g clip-path="url(#clip0_130_22727)">
<path d="M83.6869 6.52344L81.7423 11.2208C81.7423 11.2861 81.6752 11.3513 81.6752 11.4166L81.6081 11.547L81.5409 11.4166C81.5409 11.3513 81.4738 11.2861 81.4738 11.2208L79.5292 6.52344H76.981L80.3337 14.6134L78.9256 17.6798H81.4738L86.168 6.52344H83.6869Z" fill="white"/>
<path d="M64.9076 6.98301C64.4382 6.65678 63.9017 6.46108 63.231 6.39582C62.0909 6.26534 61.0179 6.65678 60.3471 7.43972V6.5263H58.0674V14.6163H60.3471V10.3756C60.3471 9.39694 60.5485 9.20124 60.6827 8.94028C60.9508 8.48357 61.4873 8.22261 62.0909 8.28783C62.6945 8.28783 63.2981 8.54884 63.5661 9.0055C63.7675 9.33173 63.7675 9.72317 63.7675 9.98413C63.7675 10.7018 63.7675 14.6163 63.7675 14.6163H66.0477V9.72317C66.0477 8.41835 65.645 7.5702 64.9076 6.98301Z" fill="white"/>
<path d="M53.7113 6.58759C52.5716 6.19614 51.3644 6.26136 50.2243 6.78333C49.4198 7.10951 48.8162 7.6967 48.3468 8.41438C47.9441 9.06678 47.7432 9.78445 47.7432 10.6326C47.7432 11.4807 47.9441 12.1984 48.3468 12.8508C48.749 13.5032 49.2855 13.9599 49.9563 14.3514C50.6265 14.6776 51.4315 14.8733 52.1689 14.8733C52.5716 14.8733 52.9739 14.8081 53.3761 14.7428C53.7113 14.6776 54.0469 14.5471 54.382 14.3514C55.0527 13.9599 55.5892 13.5032 55.9915 12.9161C56.3938 12.2636 56.5951 11.546 56.5951 10.6978C56.528 8.74056 55.455 7.23999 53.7113 6.58759ZM54.3149 10.6326C54.3149 11.3502 54.0469 11.9374 53.5775 12.3289C53.2419 12.655 52.7725 12.7856 52.1018 12.7856C51.4986 12.7856 51.0288 12.5898 50.6265 12.3289C50.1572 11.9374 49.9563 11.3502 49.8891 10.6326C49.8891 9.84967 50.1572 9.132 50.7608 8.67534C51.0959 8.41437 51.4986 8.28389 52.0351 8.28389C52.5716 8.28389 52.9739 8.41437 53.309 8.67534C54.0469 9.132 54.382 9.84967 54.3149 10.6326Z" fill="white"/>
<path d="M45.1288 6.97843C44.7264 6.6522 44.1229 6.4565 43.4523 6.39124C43.3181 6.39124 43.184 6.39124 43.0499 6.39124C42.111 6.39124 41.3734 6.78269 40.7028 7.56562L40.5687 7.6961H40.3004C40.0992 7.43514 39.8981 7.17413 39.6298 7.04365C39.2274 6.6522 38.691 6.4565 38.0203 6.39124C36.9474 6.26076 36.0756 6.58699 35.3379 7.36988V6.52172H33.0579V14.6117H35.3379V10.371V10.3057C35.3379 9.39236 35.472 9.19666 35.6062 8.9357C35.8744 8.47899 36.4109 8.21803 36.9474 8.21803C37.4839 8.21803 38.0204 8.47899 38.2886 8.9357C38.4898 9.26188 38.4898 9.65333 38.4898 10.0448V14.5465H40.8369V10.2405C40.8369 9.45763 40.971 9.1314 41.1052 8.87044C41.3734 8.41373 41.9099 8.21803 42.4464 8.21803C42.9829 8.21803 43.4523 8.54421 43.7205 8.9357C43.8546 9.19666 43.9217 9.52285 43.9217 9.78381C43.9217 9.91429 43.9217 9.97955 43.9217 10.11V14.6117H46.2017V9.71859C46.2017 9.26188 46.1347 8.87044 46.0676 8.47899C45.9335 7.82658 45.5982 7.30466 45.1288 6.97843Z" fill="white"/>
<path d="M74.7003 12.1337C74.3652 12.46 73.5602 13.0472 72.4872 13.1124C71.6156 13.1124 70.8777 12.9167 70.4084 12.3947C70.2075 12.1337 70.0061 11.8728 69.939 11.5466H76.3098V11.4813C76.377 11.1552 76.3769 10.8289 76.3769 10.568C76.3769 10.307 76.3098 9.91556 76.1756 9.39363C75.9076 8.48022 75.3711 7.76259 74.6332 7.1754C73.8287 6.58821 73.0237 6.39251 72.8228 6.39251C71.1462 6.13155 69.2683 6.84917 68.3295 8.34974C67.6588 9.39363 67.6588 10.4375 67.7259 10.7637C67.7259 11.1552 67.793 12.3947 68.7989 13.4386C69.939 14.6782 71.6156 14.7434 72.1521 14.8087C74.4323 14.8739 75.9747 13.5038 76.3098 13.1776L74.7003 12.1337ZM70.744 8.74118C71.0791 8.48022 71.4814 8.34974 72.0179 8.34974C72.5544 8.34974 72.9566 8.48022 73.2922 8.74118C73.6273 9.00214 73.8958 9.32837 74.0296 9.78508H69.939C70.1404 9.32837 70.4084 9.00214 70.744 8.74118Z" fill="white"/>
<path d="M17.228 1.23828C12.0643 1.23828 7.97363 5.28326 7.97363 10.2417C7.97363 15.2 12.1314 19.245 17.228 19.245C22.3246 19.245 26.4823 15.2 26.4823 10.2417C26.5494 5.28326 22.3246 1.23828 17.228 1.23828ZM17.228 13.569C15.3503 13.569 13.7408 12.0684 13.7408 10.2417C13.7408 8.41486 15.2832 6.9143 17.228 6.9143C19.1727 6.9143 20.7152 8.41486 20.7152 10.2417C20.6481 12.0684 19.1727 13.569 17.228 13.569Z" fill="#6C6C6C"/>
<path d="M7.97345 3.91016V17.0237H4.68745L0.462646 3.91016H7.97345Z" fill="#6C6C6C"/>
</g>
<defs>
<clipPath id="clip0_130_22727">
<rect width="86.5615" height="20.726" fill="white" transform="translate(0 0.316406)"/>
</clipPath>
</defs>
</svg>
