<svg width="56" height="19" viewBox="0 0 56 19" fill="none" xmlns="http://www.w3.org/2000/svg">
<path d="M24.53 18.1209H20.0857L22.8655 0.417969H27.3095L24.53 18.1209Z" fill="white"/>
<path d="M40.639 0.85134C39.7624 0.493146 38.372 0.0976562 36.6528 0.0976562C32.264 0.0976562 29.1734 2.50814 29.1544 5.95441C29.1179 8.49706 31.3672 9.9093 33.0494 10.7571C34.7689 11.6234 35.3534 12.1889 35.3534 12.9611C35.3359 14.1471 33.9639 14.6937 32.6844 14.6937C30.91 14.6937 29.9593 14.4119 28.5145 13.7521L27.9293 13.4692L27.3074 17.4431C28.3497 17.9322 30.2701 18.3663 32.264 18.3853C36.9272 18.3853 39.9631 16.0121 39.9991 12.3396C40.0168 10.3243 38.8292 8.78016 36.2686 7.51834C34.7142 6.70834 33.7622 6.16217 33.7622 5.33339C33.7805 4.57996 34.5674 3.80825 36.3221 3.80825C37.7669 3.77045 38.8284 4.12815 39.6326 4.48609L40.0346 4.67407L40.639 0.85134Z" fill="white"/>
<path d="M46.542 11.8494C46.9081 10.8324 48.3164 6.89624 48.3164 6.89624C48.2979 6.93404 48.6817 5.86046 48.9011 5.20139L49.2117 6.72678C49.2117 6.72678 50.0533 10.9643 50.2361 11.8494C49.5415 11.8494 47.4199 11.8494 46.542 11.8494ZM52.028 0.417969H48.5903C47.5302 0.417969 46.7248 0.737865 46.2674 1.88679L39.666 18.1206H44.3293C44.3293 18.1206 45.097 15.9357 45.262 15.4651C45.7736 15.4651 50.31 15.4651 50.9681 15.4651C51.0957 16.0866 51.4984 18.1206 51.4984 18.1206H55.6134L52.028 0.417969Z" fill="white"/>
<path d="M16.3695 0.417969L12.0171 12.4897L11.5415 10.0414C10.7368 7.21639 8.2132 4.14709 5.39697 2.62095L9.38363 18.1021H14.0833L21.069 0.417969H16.3695Z" fill="white"/>
<path d="M7.97723 0.417969H0.826814L0.753662 0.775661C6.33143 2.24473 10.0255 5.78586 11.5432 10.0421L9.98878 1.90606C9.73287 0.775411 8.94643 0.455265 7.97723 0.417969Z" fill="#6C6C6C"/>
</svg>
