<svg width="68" height="19" viewBox="0 0 68 19" fill="none" xmlns="http://www.w3.org/2000/svg">
<path fill-rule="evenodd" clip-rule="evenodd" d="M6.75178 0.0968707C7.35426 0.0932875 9.14479 -0.0670343 9.90322 2.47771C10.4141 4.19188 11.2279 6.99977 12.3447 10.9014H12.7995C13.9971 6.78803 14.8198 3.98014 15.2676 2.47771C16.0339 -0.0935421 17.9497 0.0969211 18.7161 0.0969211L24.6285 0.0969284V18.3813H18.6024V7.60603H18.1983L14.839 18.3813H10.3051L6.94585 7.59805H6.54176V18.3813H0.515625V0.0969284L6.75178 0.0968707ZM33.2819 0.0969284V10.8803H33.7627L37.8489 2.0132C38.6421 0.248633 40.3327 0.0969284 40.3327 0.0969284H46.1642V18.3814H40.0122V7.59805H39.5315L35.5253 16.4651C34.7321 18.2217 32.9614 18.3814 32.9614 18.3814H27.1299V0.0969284H33.2819ZM67.4282 8.78582C66.5701 11.2034 63.8752 12.9347 60.8916 12.9347H54.44V18.3814H48.5898V8.78582H67.4282Z" fill="white"/>
<path fill-rule="evenodd" clip-rule="evenodd" d="M61.1732 0.0976562H48.2825C48.5893 4.1684 52.1155 7.65322 55.7659 7.65322H67.8341C68.5306 4.26995 66.1331 0.0976562 61.1732 0.0976562Z" fill="url(#paint0_linear_130_22748)"/>
<defs>
<linearGradient id="paint0_linear_130_22748" x1="67.9525" y1="4.85043" x2="48.2825" y2="4.85043" gradientUnits="userSpaceOnUse">
<stop stop-color="#6C6C6C"/>
<stop offset="1" stop-color="white"/>
</linearGradient>
</defs>
</svg>
