<svg width="25" height="39" viewBox="0 0 25 39" fill="none" xmlns="http://www.w3.org/2000/svg">
<path d="M20.9736 19.5268H3.27734V13.0918H20.9736V19.5268ZM4.8861 17.9181H19.3649V14.7005H4.8861V17.9181Z" fill="#EE523F"/>
<path d="M20.9818 11.4839H3.27344V0.222656H20.9818V11.4839ZM4.88219 9.87516H19.373V1.83141H4.88219V9.87516Z" fill="#EE523F"/>
<path d="M6.53906 3.44141H17.7541V5.05016H6.53906V3.44141Z" fill="#EE523F"/>
<path d="M11.3203 6.6582H17.7553V8.26695H11.3203V6.6582Z" fill="#EE523F"/>
<path d="M2.47099 38.9995C1.83039 38.9995 1.22752 38.7513 0.772246 38.2996C0.311932 37.8432 0.0585938 37.2344 0.0585938 36.5864V7.46196C0.0585938 6.13132 1.14108 5.04883 2.47172 5.04883H4.07424V6.65758H2.47172C2.02829 6.65758 1.66735 7.01852 1.66735 7.46196V36.5864C1.66735 36.8024 1.75179 37.0055 1.90536 37.1575C2.05814 37.3099 2.24667 37.368 2.47801 37.3908L21.783 37.2364C22.2229 37.2329 22.5811 36.8719 22.5811 36.432V7.46244C22.5811 7.019 22.2202 6.65806 21.7767 6.65806H20.646V5.04931H21.7767C23.1074 5.04931 24.1899 6.1318 24.1899 7.46244V36.432C24.1899 37.7521 23.116 38.8346 21.7956 38.8452L2.49062 38.9995C2.48434 38.9999 2.47766 38.9999 2.47099 38.9999L2.47099 38.9995Z" fill="#EE523F"/>
<path d="M4.08203 24.3535H7.2933V25.9623H4.08203V24.3535Z" fill="#EE523F"/>
<path d="M10.5117 24.3535H13.723V25.9623H10.5117V24.3535Z" fill="#EE523F"/>
<path d="M16.9531 24.3535H20.1647V25.9623H16.9531V24.3535Z" fill="#EE523F"/>
<path d="M4.08203 21.1367H7.2933V22.7455H4.08203V21.1367Z" fill="#EE523F"/>
<path d="M10.5117 21.1367H13.723V22.7455H10.5117V21.1367Z" fill="#EE523F"/>
<path d="M16.9531 21.1367H20.1647V22.7455H16.9531V21.1367Z" fill="#EE523F"/>
<path d="M4.08203 27.5723H7.2933V29.181H4.08203V27.5723Z" fill="#EE523F"/>
<path d="M10.5117 27.5723H13.723V29.181H10.5117V27.5723Z" fill="#EE523F"/>
<path d="M16.9531 27.5723H20.1647V29.181H16.9531V27.5723Z" fill="#EE523F"/>
<path d="M4.08203 30.7891H7.2933V32.3978H4.08203V30.7891Z" fill="#EE523F"/>
<path d="M10.5117 30.7891H13.723V32.3978H10.5117V30.7891Z" fill="#EE523F"/>
<path d="M16.9531 30.7891H20.1647V32.3978H16.9531V30.7891Z" fill="#EE523F"/>
<path d="M4.08203 34.0059H7.2933V35.6146H4.08203V34.0059Z" fill="#EE523F"/>
<path d="M10.5117 34.0059H13.723V35.6146H10.5117V34.0059Z" fill="#EE523F"/>
<path d="M16.9531 34.0059H20.1647V35.6146H16.9531V34.0059Z" fill="#EE523F"/>
</svg>
