<svg width="29" height="23" viewBox="0 0 29 23" fill="none" xmlns="http://www.w3.org/2000/svg">
<path d="M28.9043 18.3045C28.9043 20.8379 26.897 22.9009 24.4319 22.9009H0.0976562V4.69606C0.0976562 2.16258 2.10497 0.0996094 4.57009 0.0996094H28.9043V18.3045Z" fill="white"/>
<path d="M20.9805 13.6357H22.8293C22.8821 13.6357 23.0054 13.6176 23.0582 13.6176C23.4104 13.5452 23.7097 13.2195 23.7097 12.7671C23.7097 12.3327 23.4104 12.007 23.0582 11.9165C23.0054 11.8984 22.8997 11.8984 22.8293 11.8984H20.9805V13.6357Z" fill="url(#paint0_linear_92_7772)"/>
<path d="M22.6168 1.63867C20.856 1.63867 19.4121 3.10447 19.4121 4.93219V8.35239H23.9374C24.043 8.35239 24.1663 8.35239 24.2543 8.37049C25.2756 8.42478 26.0327 8.96766 26.0327 9.90867C26.0327 10.6506 25.5221 11.284 24.5713 11.4107V11.4469C25.6102 11.5192 26.4025 12.1164 26.4025 13.0393C26.4025 14.0346 25.5221 14.6861 24.36 14.6861H19.3945V21.3817H24.0959C25.8567 21.3817 27.3005 19.9159 27.3005 18.0882V1.63867H22.6168Z" fill="url(#paint1_linear_92_7772)"/>
<path d="M23.4808 10.1263C23.4808 9.692 23.1815 9.40246 22.8293 9.34817C22.7941 9.34817 22.7061 9.33008 22.6532 9.33008H20.9805V10.9226H22.6532C22.7061 10.9226 22.8117 10.9226 22.8293 10.9045C23.1815 10.8502 23.4808 10.5606 23.4808 10.1263Z" fill="url(#paint2_linear_92_7772)"/>
<path d="M4.90586 1.63867C3.14506 1.63867 1.7012 3.10447 1.7012 4.93219V13.0574C2.59921 13.5098 3.53243 13.7994 4.46566 13.7994C5.57496 13.7994 6.17363 13.1117 6.17363 12.1707V8.33429H8.92048V12.1526C8.92048 13.6365 8.02247 14.849 4.97629 14.849C3.12745 14.849 1.68359 14.4327 1.68359 14.4327V21.3636H6.38493C8.14572 21.3636 9.58958 19.8978 9.58958 18.0701V1.63867H4.90586Z" fill="url(#paint3_linear_92_7772)"/>
<path d="M13.7632 1.63867C12.0024 1.63867 10.5586 3.10447 10.5586 4.93219V9.23911C11.3686 8.53335 12.7772 8.08095 15.0486 8.18952C16.2636 8.24381 17.5666 8.58764 17.5666 8.58764V9.98105C16.9151 9.63722 16.1403 9.32959 15.1367 9.2572C13.4111 9.13053 12.3722 9.99915 12.3722 11.5192C12.3722 13.0574 13.4111 13.926 15.1367 13.7813C16.1403 13.7089 16.9151 13.3832 17.5666 13.0574V14.4508C17.5666 14.4508 16.2812 14.7947 15.0486 14.849C12.7772 14.9575 11.3686 14.5051 10.5586 13.7994V21.3998H15.2599C17.0207 21.3998 18.4646 19.934 18.4646 18.1063V1.63867H13.7632Z" fill="url(#paint4_linear_92_7772)"/>
<defs>
<linearGradient id="paint0_linear_92_7772" x1="19.4104" y1="12.7692" x2="27.323" y2="12.7692" gradientUnits="userSpaceOnUse">
<stop stop-color="#007940"/>
<stop offset="0.2285" stop-color="#00873F"/>
<stop offset="0.7433" stop-color="#40A737"/>
<stop offset="1" stop-color="#5CB531"/>
</linearGradient>
<linearGradient id="paint1_linear_92_7772" x1="19.409" y1="11.5023" x2="27.3221" y2="11.5023" gradientUnits="userSpaceOnUse">
<stop stop-color="#007940"/>
<stop offset="0.2285" stop-color="#00873F"/>
<stop offset="0.7433" stop-color="#40A737"/>
<stop offset="1" stop-color="#5CB531"/>
</linearGradient>
<linearGradient id="paint2_linear_92_7772" x1="19.4102" y1="10.1241" x2="27.3231" y2="10.1241" gradientUnits="userSpaceOnUse">
<stop stop-color="#007940"/>
<stop offset="0.2285" stop-color="#00873F"/>
<stop offset="0.7433" stop-color="#40A737"/>
<stop offset="1" stop-color="#5CB531"/>
</linearGradient>
<linearGradient id="paint3_linear_92_7772" x1="1.69747" y1="11.5023" x2="9.73253" y2="11.5023" gradientUnits="userSpaceOnUse">
<stop stop-color="#1F286F"/>
<stop offset="0.4751" stop-color="#004E94"/>
<stop offset="0.8261" stop-color="#0066B1"/>
<stop offset="1" stop-color="#006FBC"/>
</linearGradient>
<linearGradient id="paint4_linear_92_7772" x1="10.5131" y1="11.5023" x2="18.317" y2="11.5023" gradientUnits="userSpaceOnUse">
<stop stop-color="#6C2C2F"/>
<stop offset="0.1735" stop-color="#882730"/>
<stop offset="0.5731" stop-color="#BE1833"/>
<stop offset="0.8585" stop-color="#DC0436"/>
<stop offset="1" stop-color="#E60039"/>
</linearGradient>
</defs>
</svg>
