<svg width="41" height="25" viewBox="0 0 41 25" fill="none" xmlns="http://www.w3.org/2000/svg">
<path d="M25.6612 2.67383H14.7227V22.3259H25.6612V2.67383Z" fill="#FF5A00"/>
<path d="M15.4531 12.5C15.4531 8.50728 17.3301 4.96359 20.2104 2.67395C18.0906 1.00728 15.4167 0 12.5 0C5.59061 0 0 5.59061 0 12.5C0 19.4094 5.59061 25 12.5 25C15.4167 25 18.0906 23.9927 20.2104 22.3261C17.3261 20.0688 15.4531 16.4927 15.4531 12.5Z" fill="#EB001B"/>
<path d="M40.4213 12.5C40.4213 19.4094 34.8307 25 27.9213 25C25.0046 25 22.3307 23.9927 20.2109 22.3261C23.1276 20.0324 24.9682 16.4927 24.9682 12.5C24.9682 8.50728 23.0912 4.96359 20.2109 2.67395C22.3266 1.00728 25.0006 0 27.9172 0C34.8307 0 40.4213 5.62702 40.4213 12.5Z" fill="#F79E1B"/>
</svg>
