<svg width="71" height="17" viewBox="0 0 71 17" fill="none" xmlns="http://www.w3.org/2000/svg">
<path d="M68.641 5.08984L67.046 8.94276C67.046 8.99629 66.991 9.04982 66.991 9.10332L66.9359 9.21034L66.8808 9.10332C66.8808 9.04982 66.8258 8.99629 66.8258 8.94276L65.2308 5.08984H63.1406L65.8906 11.7255L64.7357 14.2406H66.8258L70.6761 5.08984H68.641Z" fill="black"/>
<path d="M53.2394 5.4648C52.8544 5.19722 52.4144 5.0367 51.8642 4.98317C50.9291 4.87615 50.049 5.19722 49.4988 5.8394V5.0902H47.6289V11.7258H49.4988V8.24747C49.4988 7.44477 49.664 7.28425 49.7741 7.0702C49.9939 6.6956 50.434 6.48155 50.9291 6.53504C51.4242 6.53504 51.9193 6.74913 52.1391 7.1237C52.3043 7.39128 52.3043 7.71235 52.3043 7.9264C52.3043 8.51505 52.3043 11.7258 52.3043 11.7258H54.1746V7.71235C54.1746 6.64211 53.8443 5.94643 53.2394 5.4648Z" fill="black"/>
<path d="M44.0554 5.14391C43.1206 4.82284 42.1304 4.87633 41.1952 5.30446C40.5354 5.57201 40.0403 6.05364 39.6553 6.64229C39.3249 7.17741 39.1602 7.76606 39.1602 8.4617C39.1602 9.15738 39.3249 9.74604 39.6553 10.2812C39.9852 10.8163 40.4252 11.1909 40.9754 11.512C41.5252 11.7795 42.1854 11.9401 42.7903 11.9401C43.1206 11.9401 43.4505 11.8866 43.7805 11.833C44.0554 11.7795 44.3306 11.6725 44.6055 11.512C45.1557 11.1909 45.5957 10.8163 45.9257 10.3347C46.2556 9.79953 46.4208 9.21091 46.4208 8.51524C46.3657 6.90983 45.4856 5.67903 44.0554 5.14391ZM44.5505 8.4617C44.5505 9.05036 44.3306 9.53199 43.9456 9.85306C43.6704 10.1206 43.2854 10.2277 42.7352 10.2277C42.2405 10.2277 41.8551 10.0671 41.5252 9.85306C41.1402 9.53199 40.9754 9.05036 40.9203 8.4617C40.9203 7.81956 41.1402 7.2309 41.6353 6.85634C41.9102 6.64229 42.2405 6.53526 42.6805 6.53526C43.1206 6.53526 43.4505 6.64229 43.7254 6.85634C44.3306 7.2309 44.6055 7.81956 44.5505 8.4617Z" fill="black"/>
<path d="M37.0142 5.4655C36.6842 5.19792 36.1891 5.0374 35.6391 4.98387C35.529 4.98387 35.419 4.98387 35.309 4.98387C34.5389 4.98387 33.9339 5.30494 33.3838 5.94713L33.2738 6.05415H33.0538C32.8888 5.8401 32.7238 5.62602 32.5038 5.51899C32.1737 5.19792 31.7337 5.0374 31.1836 4.98387C30.3036 4.87685 29.5885 5.14443 28.9835 5.78657V5.09089H27.1133V11.7265H28.9835V8.24817V8.19464C28.9835 7.44547 29.0935 7.28495 29.2035 7.0709C29.4235 6.6963 29.8635 6.48225 30.3036 6.48225C30.7436 6.48225 31.1837 6.6963 31.4037 7.0709C31.5687 7.33845 31.5687 7.65952 31.5687 7.98059V11.673H33.4939V8.14115C33.4939 7.499 33.6039 7.23142 33.7139 7.01737C33.9339 6.64277 34.3739 6.48225 34.814 6.48225C35.254 6.48225 35.6391 6.74979 35.8591 7.0709C35.9691 7.28495 36.0241 7.5525 36.0241 7.76654C36.0241 7.87357 36.0241 7.9271 36.0241 8.03412V11.7265H37.8942V7.71305C37.8942 7.33845 37.8393 7.01737 37.7842 6.6963C37.6742 6.16118 37.3992 5.73308 37.0142 5.4655Z" fill="black"/>
<path d="M61.2713 9.69177C60.9964 9.95935 60.3361 10.441 59.456 10.4945C58.7411 10.4945 58.1359 10.334 57.7509 9.90581C57.5861 9.69177 57.4209 9.47772 57.3659 9.21017H62.5914V9.15664C62.6465 8.8891 62.6464 8.62152 62.6464 8.40747C62.6464 8.19342 62.5914 7.87235 62.4813 7.44425C62.2615 6.69504 61.8214 6.10643 61.2162 5.6248C60.5563 5.14317 59.8961 4.98265 59.7313 4.98265C58.3561 4.7686 56.8157 5.35722 56.0457 6.58802C55.4956 7.44425 55.4956 8.30045 55.5506 8.56799C55.5506 8.8891 55.6057 9.90581 56.4307 10.762C57.3659 11.7788 58.7411 11.8323 59.1811 11.8858C61.0514 11.9393 62.3165 10.8155 62.5914 10.548L61.2713 9.69177ZM58.0261 6.90909C58.301 6.69504 58.631 6.58802 59.071 6.58802C59.5111 6.58802 59.841 6.69504 60.1163 6.90909C60.3912 7.12314 60.6114 7.39072 60.7211 7.76533H57.3659C57.531 7.39072 57.7509 7.12314 58.0261 6.90909Z" fill="black"/>
<path d="M14.1297 0.755859C9.89436 0.755859 6.53906 4.07366 6.53906 8.14066C6.53906 12.2076 9.94934 15.5255 14.1297 15.5255C18.3101 15.5255 21.7204 12.2076 21.7204 8.14066C21.7754 4.07366 18.3101 0.755859 14.1297 0.755859ZM14.1297 10.8698C12.5896 10.8698 11.2695 9.639 11.2695 8.14066C11.2695 6.64228 12.5346 5.41148 14.1297 5.41148C15.7249 5.41148 16.99 6.64228 16.99 8.14066C16.935 9.639 15.7249 10.8698 14.1297 10.8698Z" fill="#8B3FFD"/>
<path d="M6.53947 2.94922V13.7053H3.8442L0.378906 2.94922H6.53947Z" fill="#8B3FFD"/>
</svg>
