<svg width="57" height="31" viewBox="0 0 57 31" fill="none" xmlns="http://www.w3.org/2000/svg">
<path d="M9.12487 16.873H1.15762C0.765873 16.873 0.449219 17.1897 0.449219 17.5815C0.449219 17.9732 0.765873 18.2899 1.15762 18.2899H9.12487C9.51662 18.2899 9.83327 17.9732 9.83327 17.5815C9.83278 17.1892 9.51662 16.873 9.12487 16.873Z" fill="#EE523F"/>
<path d="M8.2472 22.3203H7.42715C7.0354 22.3203 6.71875 22.637 6.71875 23.0287C6.71875 23.4205 7.0354 23.7371 7.42715 23.7371H8.2472C8.63895 23.7371 8.9556 23.4205 8.9556 23.0287C8.95511 22.637 8.63895 22.3203 8.2472 22.3203Z" fill="#EE523F"/>
<path d="M57.3035 18.0525L50.4073 10.4937H42.1954V5.56945H24.5827C23.2494 2.58666 20.2597 0.5 16.7869 0.5C12.0781 0.5 8.24609 4.33149 8.24609 9.04077C8.24609 13.423 11.5663 17.0411 15.8226 17.5227V22.3195H10.5077C10.1159 22.3195 9.79925 22.6362 9.79925 23.0279C9.79925 23.4197 10.1159 23.7363 10.5077 23.7363H15.8226V27.6893H19.1344C19.378 29.3813 20.822 30.6895 22.579 30.6895C24.3366 30.6895 25.7806 29.3808 26.0242 27.6893H45.8222C46.0657 29.3813 47.5097 30.6895 49.2673 30.6895C51.0245 30.6895 52.4689 29.3808 52.7119 27.6893H57.3017V18.0524L57.3035 18.0525ZM9.66313 9.04039C9.66313 5.11215 12.8593 1.91589 16.7876 1.91589C20.716 1.91589 23.9121 5.11203 23.9121 9.04039C23.9121 12.9687 20.716 16.1649 16.7876 16.1649C12.8589 16.1649 9.66313 12.9682 9.66313 9.04039ZM22.5789 29.2721C21.4328 29.2721 20.5001 28.34 20.5001 27.1929C20.5001 26.0478 21.4323 25.1151 22.5789 25.1151C23.7255 25.1151 24.6581 26.0473 24.6581 27.1929C24.6581 28.34 23.7259 29.2721 22.5789 29.2721ZM40.7784 26.272H25.9353C25.5282 24.7935 24.1855 23.6992 22.579 23.6992C20.9731 23.6992 19.6309 24.7934 19.2238 26.272H17.2395V17.5574C21.7378 17.3193 25.3277 13.5955 25.3277 9.03937C25.3277 8.32999 25.2309 7.64435 25.0679 6.98484H40.7786V26.2719L40.7784 26.272ZM49.2673 29.2721C48.1207 29.2721 47.1881 28.34 47.1881 27.1929C47.1881 26.0478 48.1203 25.1151 49.2673 25.1151C50.4134 25.1151 51.3461 26.0473 51.3461 27.1929C51.3461 28.34 50.4135 29.2721 49.2673 29.2721ZM55.8864 26.272H52.623C52.216 24.7935 50.8733 23.6992 49.2678 23.6992C47.6608 23.6992 46.3187 24.7934 45.9116 26.272H42.1947V11.9095H49.781L55.8863 18.6012L55.8864 26.272Z" fill="#EE523F"/>
<path d="M2.61075 11.6121H6.6872C7.07894 11.6121 7.3956 11.295 7.3956 10.9037C7.3956 10.512 7.07894 10.1953 6.6872 10.1953H2.61075C2.219 10.1953 1.90234 10.512 1.90234 10.9037C1.90284 11.2945 2.21949 11.6121 2.61075 11.6121Z" fill="#EE523F"/>
<path d="M16.6576 10.0647C16.6966 10.0909 16.7297 10.124 16.7722 10.1417C16.8571 10.1778 16.9505 10.1976 17.0483 10.1976H21.1248C21.5165 10.1976 21.8332 9.88042 21.8332 9.48917C21.8332 9.09742 21.5165 8.78077 21.1248 8.78077H17.7566V3.37442C17.7566 2.98267 17.44 2.66602 17.0482 2.66602C16.6575 2.66602 16.3398 2.98267 16.3398 3.37442V9.48922C16.3398 9.58703 16.3596 9.68039 16.3957 9.76537C16.4134 9.80834 16.4465 9.84095 16.4727 9.87997C16.4974 9.91702 16.5157 9.95852 16.5463 9.98964C16.5775 10.0218 16.6204 10.04 16.6575 10.0647L16.6576 10.0647Z" fill="#EE523F"/>
</svg>
