<svg width="56" height="15" viewBox="0 0 56 15" fill="none" xmlns="http://www.w3.org/2000/svg">
<path fill-rule="evenodd" clip-rule="evenodd" d="M5.11506 0.00255968C5.60922 -0.000379333 7.07786 -0.13188 7.69995 1.95539C8.119 3.36139 8.78651 5.6645 9.70249 8.8647H10.0755C11.0578 5.49082 11.7326 3.18772 12.0999 1.95539C12.7285 -0.153622 14.2999 0.00260101 14.9285 0.00260101L19.778 0.00260702V15H14.8352V6.16177H14.5038L11.7484 15H8.0296L5.27424 6.15522H4.94279V15H0V0.00260702L5.11506 0.00255968ZM26.8758 0.00260702V8.84738H27.2701L30.6217 1.57439C31.2723 0.127039 32.659 0.00260702 32.659 0.00260702H37.4422V15H32.3961V6.15522H32.0018L28.7159 13.4282C28.0653 14.869 26.6129 15 26.6129 15H21.8298V0.00260702H26.8758ZM54.8834 7.12947C54.1796 9.1124 51.9692 10.5325 49.5219 10.5325H44.2302V15H39.4317V7.12947H54.8834Z" fill="#0F754E"/>
<path fill-rule="evenodd" clip-rule="evenodd" d="M49.753 0.00195312H39.1797C39.4313 3.34088 42.3236 6.19922 45.3178 6.19922H55.2165C55.7877 3.42418 53.8212 0.00195312 49.753 0.00195312Z" fill="url(#paint0_linear_92_7757)"/>
<defs>
<linearGradient id="paint0_linear_92_7757" x1="55.3136" y1="3.9003" x2="39.1797" y2="3.9003" gradientUnits="userSpaceOnUse">
<stop stop-color="#1F5CD7"/>
<stop offset="1" stop-color="#02AEFF"/>
</linearGradient>
</defs>
</svg>
