<svg width="45" height="15" viewBox="0 0 45 15" fill="none" xmlns="http://www.w3.org/2000/svg">
<g clip-path="url(#clip0_92_7724)">
<path d="M19.5008 14.7841H15.8555L18.1355 0.263672H21.7806L19.5008 14.7841Z" fill="#00579F"/>
<path d="M32.7162 0.618191C31.9972 0.324391 30.8568 0 29.4466 0C25.8468 0 23.3118 1.97714 23.2962 4.80386C23.2663 6.88941 25.1112 8.04777 26.491 8.74316C27.9014 9.45374 28.3808 9.91754 28.3808 10.5509C28.3664 11.5237 27.2411 11.9721 26.1916 11.9721C24.7363 11.9721 23.9564 11.7409 22.7714 11.1997L22.2914 10.9677L21.7812 14.2272C22.6362 14.6284 24.2114 14.9844 25.8468 15C29.6717 15 32.1618 13.0535 32.1913 10.0411C32.2059 8.38818 31.2317 7.12161 29.1315 6.08664C27.8565 5.42226 27.0757 4.97427 27.0757 4.29449C27.0906 3.6765 27.7361 3.04353 29.1753 3.04353C30.3604 3.01252 31.2311 3.30591 31.8907 3.59951L32.2204 3.7537L32.7162 0.618191Z" fill="#00579F"/>
<path d="M37.5579 9.64001C37.8581 8.80583 39.0132 5.57732 39.0132 5.57732C38.9981 5.60832 39.3129 4.72774 39.4929 4.18716L39.7476 5.43832C39.7476 5.43832 40.4379 8.91403 40.5878 9.64001C40.0181 9.64001 38.2779 9.64001 37.5579 9.64001ZM42.0576 0.263672H39.2379C38.3684 0.263672 37.7078 0.526059 37.3326 1.46844L31.918 14.7839H35.7429C35.7429 14.7839 36.3726 12.9917 36.508 12.6057C36.9276 12.6057 40.6484 12.6057 41.1882 12.6057C41.2929 13.1155 41.6232 14.7839 41.6232 14.7839H44.9984L42.0576 0.263672Z" fill="#00579F"/>
<path d="M12.8086 0.263672L9.23859 10.1652L8.84849 8.15705C8.18847 5.83991 6.11854 3.32239 3.80859 2.07061L7.07855 14.7687H10.9334L16.6632 0.263672H12.8086Z" fill="#00579F"/>
<path d="M5.92496 0.263672H0.0600008L0 0.557061C4.57503 1.76203 7.60499 4.66656 8.84986 8.15766L7.57489 1.48424C7.36498 0.556856 6.71992 0.294263 5.92496 0.263672Z" fill="#FAA61A"/>
</g>
<defs>
<clipPath id="clip0_92_7724">
<rect width="45" height="15" fill="white"/>
</clipPath>
</defs>
</svg>
