<svg width="59" height="33" viewBox="0 0 59 33" fill="none" xmlns="http://www.w3.org/2000/svg">
<g clip-path="url(#clip0_138_23087)">
<path d="M0.193604 32.2188H1.50702V29.6043C1.50702 29.1387 1.50702 28.5643 1.7449 28.2278C1.98159 27.862 2.40668 27.743 2.64396 27.743C3.7505 27.743 3.7505 29.0509 3.7505 29.5051V32.2188H5.06332V29.2481C5.06332 28.8213 5.06332 27.9014 4.56013 27.2977C4.10643 26.7425 3.38444 26.5333 2.91106 26.5333C2.08056 26.5333 1.62626 26.9905 1.40924 27.1985V26.7215H0.193604V32.2188Z" fill="white" fill-opacity="0.3"/>
<path fill-rule="evenodd" clip-rule="evenodd" d="M11.0377 30.0608C11.0752 29.8832 11.1164 29.6549 11.1164 29.3979C11.1164 28.0124 10.0194 26.5044 8.28087 26.5044C6.59126 26.5044 5.39648 27.9323 5.39648 29.4864C5.39648 31.09 6.66101 32.3984 8.29101 32.3984C9.57521 32.3984 10.6215 31.4786 10.9381 30.4875H9.55435C9.30812 30.943 8.87409 31.1899 8.29101 31.1899C7.3526 31.1899 6.83868 30.4176 6.77906 30.0608H11.0377ZM6.73971 29.001C6.98654 27.9807 7.8069 27.7135 8.29101 27.7135C8.94325 27.7135 9.6241 28.1194 9.77255 29.001H6.73971Z" fill="white" fill-opacity="0.3"/>
<path d="M12.8018 32.2188H13.6103L14.6482 28.654H14.6673L15.6958 32.2188H16.5054L18.5104 26.7215H17.1081L16.0994 30.0795H16.0803L15.1902 26.7215H14.1445L13.2454 30.0795H13.2257L12.2283 26.7215H10.8254L12.8018 32.2188Z" fill="white" fill-opacity="0.3"/>
<path fill-rule="evenodd" clip-rule="evenodd" d="M21.0532 32.2178H22.2575V31.5543C22.5825 31.9213 23.0487 32.3965 24.1057 32.3965C26.1101 32.3965 26.8315 30.5448 26.8315 29.4444C26.8315 27.9901 25.7453 26.5323 24.0759 26.5323C23.463 26.5323 22.8203 26.7612 22.366 27.2173V24.8892H21.0532V32.2178ZM22.2867 29.3959C22.2867 28.5938 22.9092 27.7421 23.9167 27.7421C24.7472 27.7421 25.5181 28.3846 25.5181 29.4557C25.5181 30.5238 24.7967 31.1885 23.937 31.1885C23.1667 31.1885 22.2867 30.6141 22.2867 29.3959Z" fill="white" fill-opacity="0.3"/>
<path fill-rule="evenodd" clip-rule="evenodd" d="M32.9654 26.7225H31.7593V27.4177H31.7397C31.6997 27.3376 31.0373 26.5336 29.9225 26.5336C28.4016 26.5336 27.1758 27.7524 27.1758 29.4373C27.1758 31.2688 28.4308 32.3984 29.8438 32.3984C30.5341 32.3984 31.345 32.0308 31.7593 31.5383V32.2197H32.9654V26.7225ZM31.7212 29.4577C31.7212 30.4774 31.0284 31.1899 30.1192 31.1899C29.1814 31.1899 28.4892 30.4272 28.4892 29.4965C28.4892 28.6747 29.0425 27.744 30.1192 27.744C30.9002 27.744 31.7212 28.3178 31.7212 29.4577Z" fill="white" fill-opacity="0.3"/>
<path d="M34.9763 24.8902H33.6628V32.2188H34.9763V24.8902Z" fill="white" fill-opacity="0.3"/>
<path fill-rule="evenodd" clip-rule="evenodd" d="M41.1594 26.7225H39.9545V27.4177H39.9342C39.8943 27.3376 39.2319 26.5336 38.117 26.5336C36.5943 26.5336 35.3704 27.7524 35.3704 29.4373C35.3704 31.2688 36.6254 32.3984 38.0377 32.3984C38.7287 32.3984 39.5384 32.0308 39.9545 31.5383V32.2197H41.1594V26.7225ZM39.9146 29.4577C39.9146 30.4774 39.2236 31.1899 38.3144 31.1899C37.3754 31.1899 36.6844 30.4272 36.6844 29.4965C36.6844 28.6747 37.2376 27.744 38.3144 27.744C39.0948 27.744 39.9146 28.3178 39.9146 29.4577Z" fill="white" fill-opacity="0.3"/>
<path d="M41.8584 32.2188H43.1712V29.6043C43.1712 29.1387 43.1712 28.5643 43.4091 28.2278C43.6458 27.862 44.0721 27.743 44.3082 27.743C45.4141 27.743 45.4141 29.0509 45.4141 29.5051V32.2188H46.7287V29.2481C46.7287 28.8213 46.7287 27.9014 46.2237 27.2977C45.7694 26.7425 45.0492 26.5333 44.5747 26.5333C43.7442 26.5333 43.2911 26.9905 43.0728 27.1985V26.7215H41.8584V32.2188Z" fill="white" fill-opacity="0.3"/>
<path d="M51.3959 30.4258C51.0495 30.9805 50.6161 31.1885 50.1815 31.1885C49.1924 31.1885 48.5312 30.4061 48.5312 29.4653C48.5312 28.3362 49.3217 27.7421 50.1212 27.7421C50.9315 27.7421 51.2385 28.2669 51.3959 28.5436H52.8786C52.3152 26.8497 50.8122 26.5323 50.1212 26.5323C48.6099 26.5323 47.2178 27.7624 47.2178 29.4444C47.2178 31.2674 48.7273 32.3965 50.132 32.3965C51.4162 32.3965 52.4327 31.6535 52.8786 30.4258H51.3959Z" fill="white" fill-opacity="0.3"/>
<path fill-rule="evenodd" clip-rule="evenodd" d="M58.723 30.0608C58.7617 29.8832 58.8011 29.6549 58.8011 29.3979C58.8011 28.0124 57.7053 26.5044 55.9668 26.5044C54.2772 26.5044 53.0818 27.9323 53.0818 29.4864C53.0818 31.09 54.3463 32.3984 55.9763 32.3984C57.2599 32.3984 58.308 31.4786 58.6234 30.4875H57.2408C56.9934 30.943 56.56 31.1899 55.9763 31.1899C55.0373 31.1899 54.524 30.4176 54.4662 30.0608H58.723ZM54.4256 29.001C54.673 27.9807 55.4922 27.7135 55.9763 27.7135C56.6291 27.7135 57.31 28.1194 57.4579 29.001H54.4256Z" fill="white" fill-opacity="0.3"/>
<path fill-rule="evenodd" clip-rule="evenodd" d="M22.553 13.9982L20.7972 17.0382L11.0787 16.4901L12.0516 14.7967L22.553 13.9982ZM29.5786 4.31157L30.4592 7.66656L16.6692 6.75803L17.6416 5.06529L29.5786 4.31157ZM20.4365 0.199282L28.5084 0.205257L29.1177 2.4993L19.4653 1.89202L20.4365 0.199282ZM19.7271 18.9287L18.3254 21.3447L8.28369 21.3555L9.25609 19.6633L19.7271 18.9287ZM37.3571 12.4106L34.9264 16.6347H37.2415C38.314 16.6347 40.2362 16.098 40.8276 14.5666C41.3755 13.1434 40.3685 12.4088 39.6656 12.4088L37.3571 12.4106ZM39.6751 8.37007L41.6945 8.35752C43.0383 8.35035 44.4399 7.7341 44.9527 6.48368C45.4254 5.32351 44.7899 4.33548 43.9475 4.33907L41.9943 4.33668L39.6751 8.37007ZM30.5349 7.66656L32.5739 4.12031L39.4748 3.6762L39.7157 3.24584L33.3322 2.79815L34.8251 0.199282L46.6631 0.198685C50.3035 0.198685 52.9965 1.5035 51.9496 5.34084C51.6348 6.5034 50.1551 9.42982 45.8154 10.6557C46.7365 10.7657 49.0306 11.7848 48.6354 14.4267C47.933 19.1116 41.8828 21.3417 38.5173 21.3429L24.5413 21.3495L23.8527 18.6388L31.1728 18.1212L31.4214 17.6921L23.4819 17.2073L22.6264 13.994L33.9236 13.3329L34.1693 12.9073L13.873 11.6234L14.8454 9.93131L36.6924 8.50934L36.9398 8.08317L30.5349 7.66656Z" fill="white" fill-opacity="0.3"/>
</g>
<defs>
<clipPath id="clip0_138_23087">
<rect width="59" height="32.5927" fill="white"/>
</clipPath>
</defs>
</svg>
