<svg width="25" height="26" viewBox="0 0 25 26" fill="none" xmlns="http://www.w3.org/2000/svg">
<path d="M12.4997 0.679688C5.70219 0.679688 0.179688 6.20219 0.179688 12.9997C0.179688 19.7972 5.70219 25.3197 12.4997 25.3197C19.2972 25.3197 24.8197 19.7972 24.8197 12.9997C24.8197 6.20219 19.2972 0.679688 12.4997 0.679688ZM12.4997 1.79959C18.6917 1.79959 23.6997 6.80759 23.6997 12.9996C23.6997 19.1916 18.6917 24.1996 12.4997 24.1996C6.30769 24.1996 1.29969 19.1916 1.29969 12.9996C1.29969 6.80759 6.30769 1.79959 12.4997 1.79959ZM18.4322 8.23059C18.2859 8.23645 18.1478 8.29914 18.0472 8.40559L10.8197 15.8341L7.65233 12.5792C7.5494 12.4704 7.40741 12.4071 7.2578 12.4038C7.10819 12.4005 6.96346 12.4571 6.85584 12.5612C6.74823 12.6653 6.6867 12.8081 6.68514 12.9577C6.68358 13.1075 6.74197 13.2515 6.84725 13.3579L10.4173 17.0241C10.5228 17.1331 10.6679 17.1948 10.8197 17.1948C10.9715 17.1948 11.1168 17.1331 11.2222 17.0241L18.8522 9.1841C19.0141 9.02062 19.0597 8.77492 18.9669 8.56435C18.8741 8.3538 18.6621 8.2216 18.4322 8.23059Z" fill="#202020"/>
</svg>
