<svg width="30" height="30" viewBox="0 0 30 30" fill="none" xmlns="http://www.w3.org/2000/svg">
<path d="M14.5 30C7.58824 30 2 24.4118 2 17.5C2 10.5882 7.58824 5 14.5 5C21.4118 5 27 10.5882 27 17.5C27 24.4118 21.4118 30 14.5 30ZM14.5 6.47059C8.39706 6.47059 3.47059 11.3971 3.47059 17.5C3.47059 23.6029 8.39706 28.5294 14.5 28.5294C20.6029 28.5294 25.5294 23.6029 25.5294 17.5C25.5294 11.3971 20.6029 6.47059 14.5 6.47059Z" fill="black"/>
<path d="M18.0909 24L14 19.3729V11H15.2987V18.7853L19 22.9718L18.0909 24Z" fill="black"/>
</svg>
