<svg width="30" height="30" viewBox="0 0 30 30" fill="none" xmlns="http://www.w3.org/2000/svg">
<path d="M20.4873 26.6261C20.2631 26.6255 20.0396 26.6009 19.8206 26.5528C15.6517 25.6904 11.811 23.6684 8.74064 20.7195C5.73575 17.7641 3.6517 14.0012 2.74064 9.88615C2.63321 9.37329 2.65958 8.84142 2.8172 8.34169C2.97482 7.84197 3.2584 7.39123 3.64064 7.03282L6.3073 4.46615C6.44351 4.33734 6.60534 4.2387 6.78225 4.17667C6.95915 4.11464 7.14715 4.09061 7.33397 4.10615C7.52768 4.12636 7.71461 4.18876 7.88162 4.28896C8.04862 4.38917 8.19165 4.52474 8.30064 4.68615L11.634 9.61282C11.759 9.80398 11.8193 10.0302 11.8061 10.2582C11.7929 10.4863 11.7069 10.704 11.5606 10.8795L9.8873 12.8795C10.5537 14.3545 11.4975 15.6875 12.6673 16.8062C13.8295 17.9653 15.2032 18.8909 16.714 19.5328L18.7873 17.8862C18.9614 17.7485 19.1733 17.6672 19.3948 17.6529C19.6163 17.6386 19.8369 17.692 20.0273 17.8062L25.0606 21.0595C25.2334 21.1626 25.3805 21.3035 25.4911 21.4716C25.6016 21.6396 25.6727 21.8306 25.699 22.03C25.7253 22.2295 25.7061 22.4323 25.6429 22.6233C25.5797 22.8142 25.4741 22.9884 25.334 23.1328L22.734 25.7062C22.4386 26 22.0881 26.2326 21.7025 26.3905C21.3169 26.5484 20.9039 26.6285 20.4873 26.6261V26.6261ZM7.2273 5.42615L4.56064 7.99282C4.34561 8.19318 4.18643 8.44607 4.09876 8.72661C4.01109 9.00714 3.99796 9.30567 4.06064 9.59282C4.90779 13.4542 6.85512 16.9877 9.6673 19.7662C12.5568 22.5405 16.171 24.4424 20.094 25.2528C20.3909 25.3149 20.6986 25.3023 20.9895 25.2162C21.2804 25.1301 21.5453 24.9732 21.7606 24.7595L24.3606 22.1862L19.5006 19.0462L17.274 20.8195C17.1887 20.887 17.0883 20.9325 16.9814 20.9523C16.8745 20.9721 16.7644 20.9654 16.6606 20.9328C14.8118 20.2516 13.1363 19.1703 11.754 17.7662C10.3242 16.431 9.21439 14.7902 8.5073 12.9662C8.47739 12.8557 8.4764 12.7395 8.50442 12.6285C8.53244 12.5176 8.58853 12.4158 8.6673 12.3328L10.4673 10.1795L7.2273 5.42615Z" fill="#202020"/>
</svg>
