<svg width="14" height="8" viewBox="0 0 14 8" fill="none" xmlns="http://www.w3.org/2000/svg">
<path d="M0.625248 1.2918L6.60575 7.12156C6.71079 7.22395 6.85168 7.28125 6.99837 7.28125C7.14507 7.28125 7.28595 7.22395 7.391 7.12156L13.3738 1.2918C13.4227 1.24411 13.4617 1.18708 13.4883 1.12409C13.5148 1.0611 13.5285 0.993425 13.5285 0.925055C13.5285 0.856684 13.5148 0.789006 13.4883 0.726016C13.4617 0.663026 13.4227 0.606 13.3738 0.558305C13.2733 0.460179 13.1384 0.405245 12.998 0.405245C12.8576 0.405245 12.7227 0.460179 12.6223 0.558305L6.99837 6.04043L1.37562 0.558305C1.27521 0.460516 1.14059 0.405794 1.00044 0.405794C0.860277 0.405794 0.725656 0.460516 0.625248 0.558305C0.576262 0.606 0.537327 0.663026 0.510741 0.726016C0.484156 0.789006 0.470459 0.856684 0.470459 0.925055C0.470459 0.993425 0.484156 1.0611 0.510741 1.12409C0.537327 1.18708 0.576262 1.24411 0.625248 1.2918V1.2918Z" fill="#181818"/>
</svg>
