<svg width="14" height="8" viewBox="0 0 14 8" fill="none" xmlns="http://www.w3.org/2000/svg">
<path d="M13.3743 6.7121L7.39376 0.882351C7.28872 0.77996 7.14783 0.722656 7.00114 0.722656C6.85445 0.722656 6.71356 0.77996 6.60851 0.882351L0.625762 6.7121C0.576776 6.7598 0.537841 6.81682 0.511255 6.87981C0.48467 6.9428 0.470974 7.01048 0.470974 7.07885C0.470974 7.14722 0.48467 7.2149 0.511255 7.27789C0.537841 7.34088 0.576776 7.3979 0.625762 7.4456C0.726222 7.54373 0.861082 7.59866 1.00151 7.59866C1.14194 7.59866 1.2768 7.54373 1.37726 7.4456L7.00114 1.96348L12.6239 7.4456C12.7243 7.54339 12.8589 7.59811 12.9991 7.59811C13.1392 7.59811 13.2739 7.54339 13.3743 7.4456C13.4232 7.39791 13.4622 7.34088 13.4888 7.27789C13.5154 7.2149 13.5291 7.14722 13.5291 7.07885C13.5291 7.01048 13.5154 6.9428 13.4888 6.87981C13.4622 6.81682 13.4232 6.7598 13.3743 6.7121V6.7121Z" fill="#181818"/>
</svg>
