<svg width="10" height="18" viewBox="0 0 10 18" fill="none" xmlns="http://www.w3.org/2000/svg">
<path d="M8.2828 0.501307L0.509802 8.47531C0.373281 8.61537 0.296875 8.80322 0.296875 8.99881C0.296875 9.1944 0.373281 9.38225 0.509802 9.52231L8.2828 17.4993C8.3464 17.5646 8.42243 17.6165 8.50642 17.652C8.5904 17.6874 8.68064 17.7057 8.7718 17.7057C8.86296 17.7057 8.9532 17.6874 9.03719 17.652C9.12117 17.6165 9.19721 17.5646 9.2608 17.4993C9.39163 17.3654 9.46488 17.1855 9.46488 16.9983C9.46488 16.8111 9.39163 16.6313 9.2608 16.4973L1.9513 8.99881L9.2608 1.50181C9.39119 1.36793 9.46415 1.18844 9.46415 1.00156C9.46415 0.814679 9.39119 0.635185 9.2608 0.501307C9.19721 0.435992 9.12117 0.384079 9.03719 0.348632C8.9532 0.313184 8.86296 0.294922 8.7718 0.294922C8.68064 0.294922 8.5904 0.313184 8.50642 0.348632C8.42243 0.384079 8.3464 0.435992 8.2828 0.501307Z" fill="#181818"/>
</svg>
