<svg width="10" height="18" viewBox="0 0 10 18" fill="none" xmlns="http://www.w3.org/2000/svg">
<path d="M1.7172 17.4987L9.4902 9.52469C9.62672 9.38463 9.70313 9.19678 9.70313 9.00119C9.70313 8.8056 9.62672 8.61775 9.4902 8.47769L1.7172 0.500692C1.65361 0.435376 1.57757 0.383462 1.49359 0.348016C1.4096 0.312568 1.31936 0.294307 1.2282 0.294307C1.13704 0.294307 1.0468 0.312568 0.962815 0.348016C0.878829 0.383462 0.802795 0.435376 0.7392 0.500692C0.608367 0.634637 0.535121 0.81445 0.535121 1.00169C0.535121 1.18893 0.608366 1.36875 0.7392 1.50269L8.0487 9.00119L0.739199 16.4982C0.608814 16.6321 0.535852 16.8116 0.535852 16.9984C0.535852 17.1853 0.608814 17.3648 0.739199 17.4987C0.802794 17.564 0.878827 17.6159 0.962813 17.6514C1.0468 17.6868 1.13704 17.7051 1.2282 17.7051C1.31936 17.7051 1.4096 17.6868 1.49358 17.6514C1.57757 17.6159 1.6536 17.564 1.7172 17.4987Z" fill="#181818"/>
</svg>
