<svg width="24" height="24" viewBox="0 0 24 24" fill="none" xmlns="http://www.w3.org/2000/svg">
<path d="M23.9893 21.8058L22.3326 6.33999C22.3006 6.04004 22.007 5.8104 21.656 5.8104L16.9167 5.81058V4.21901C16.9167 1.89262 14.7111 0 12.0001 0C9.28896 0 7.08338 1.89262 7.08338 4.21901V5.81058H2.34395C1.9927 5.81058 1.69962 6.04006 1.66734 6.34017L0.0106306 21.806C-0.0511293 22.3839 0.157073 22.9158 0.612745 23.3445C1.06842 23.7734 1.66691 24 2.34335 24H21.6564C22.3328 24 22.9311 23.7734 23.387 23.3445C23.8429 22.916 24.0511 22.3837 23.9893 21.8058ZM8.44203 4.21911C8.44203 2.5356 10.038 1.16605 11.9999 1.16605C13.9618 1.16605 15.5579 2.5356 15.5579 4.21911V5.81068H8.44192L8.44203 4.21911ZM22.3832 22.5587C22.1865 22.744 21.9488 22.8339 21.6565 22.8339H2.34346C2.05121 22.8339 1.8135 22.744 1.61676 22.5587C1.42001 22.3735 1.33724 22.1623 1.36377 21.9126L2.9636 6.97644H7.0831V8.24091C7.0831 8.56289 7.38745 8.82407 7.76269 8.82407C8.13794 8.82407 8.44229 8.5629 8.44229 8.24091V6.97644H15.5582V8.24091C15.5582 8.56289 15.8626 8.82407 16.2378 8.82407C16.6131 8.82407 16.9174 8.5629 16.9174 8.24091V6.97644H21.0369L22.6367 21.9126C22.6629 22.1623 22.58 22.3735 22.3832 22.5587Z" fill="#181818"/>
</svg>
