<svg width="14" height="18" viewBox="0 0 14 18" fill="none" xmlns="http://www.w3.org/2000/svg">
<path d="M6.99993 0.607422C8.84697 0.607422 10.6184 1.34116 11.9244 2.64721C13.2305 3.95327 13.9642 5.72466 13.9642 7.57171C13.9642 10.5146 11.8964 13.7217 7.81422 17.2274C7.58723 17.4224 7.29783 17.5295 6.99859 17.5292C6.69936 17.529 6.41014 17.4214 6.1835 17.226L5.9135 16.9917C2.01207 13.5774 0.0356445 10.4489 0.0356445 7.57171C0.0356445 5.72466 0.76938 3.95327 2.07544 2.64721C3.38149 1.34116 5.15289 0.607422 6.99993 0.607422ZM6.99993 1.67885C5.43705 1.67885 3.93818 2.2997 2.83305 3.40483C1.72793 4.50995 1.10707 6.00882 1.10707 7.57171C1.10707 10.0731 2.92707 12.9553 6.61707 16.1839L6.8835 16.4146C6.9159 16.4424 6.95721 16.4577 6.99993 16.4577C7.04266 16.4577 7.08396 16.4424 7.11636 16.4146C10.9849 13.0917 12.8928 10.1324 12.8928 7.57171C12.8928 6.79785 12.7404 6.03156 12.4442 5.31661C12.1481 4.60165 11.714 3.95203 11.1668 3.40483C10.6196 2.85763 9.96999 2.42356 9.25503 2.12742C8.54008 1.83127 7.77379 1.67885 6.99993 1.67885ZM6.99993 4.89314C7.71033 4.89314 8.39164 5.17534 8.89397 5.67767C9.3963 6.18 9.6785 6.86131 9.6785 7.57171C9.6785 8.28211 9.3963 8.96341 8.89397 9.46574C8.39164 9.96807 7.71033 10.2503 6.99993 10.2503C6.28953 10.2503 5.60822 9.96807 5.10589 9.46574C4.60357 8.96341 4.32136 8.28211 4.32136 7.57171C4.32136 6.86131 4.60357 6.18 5.10589 5.67767C5.60822 5.17534 6.28953 4.89314 6.99993 4.89314ZM6.99993 5.96456C6.57369 5.96456 6.16491 6.13389 5.86351 6.43529C5.56211 6.73668 5.39279 7.14547 5.39279 7.57171C5.39279 7.99795 5.56211 8.40673 5.86351 8.70813C6.16491 9.00953 6.57369 9.17885 6.99993 9.17885C7.42617 9.17885 7.83495 9.00953 8.13635 8.70813C8.43775 8.40673 8.60707 7.99795 8.60707 7.57171C8.60707 7.14547 8.43775 6.73668 8.13635 6.43529C7.83495 6.13389 7.42617 5.96456 6.99993 5.96456Z" fill="black"/>
</svg>
