<svg width="20" height="20" viewBox="0 0 20 20" fill="none" xmlns="http://www.w3.org/2000/svg">
<path d="M15.4057 19.6885C15.2188 19.6879 15.0326 19.6675 14.8501 19.6273C11.376 18.9087 8.17546 17.2237 5.61679 14.7662C3.11272 12.3034 1.37601 9.16768 0.616791 5.73846C0.52727 5.31108 0.549242 4.86785 0.680594 4.45141C0.811946 4.03498 1.04826 3.65936 1.36679 3.36068L3.58901 1.22179C3.70252 1.11445 3.83738 1.03225 3.9848 0.980561C4.13222 0.928868 4.28889 0.908843 4.44457 0.921793C4.60599 0.938634 4.76177 0.990634 4.90094 1.07414C5.04011 1.15764 5.1593 1.27062 5.25012 1.40513L8.0279 5.51068C8.13207 5.66998 8.18235 5.85851 8.17135 6.04853C8.16035 6.23855 8.08865 6.42002 7.96679 6.56624L6.57235 8.2329C7.12771 9.46204 7.9142 10.5729 8.88901 11.5051C9.85751 12.4711 11.0023 13.2425 12.2612 13.7773L13.989 12.4051C14.1341 12.2904 14.3107 12.2226 14.4953 12.2107C14.6799 12.1988 14.8637 12.2434 15.0223 12.3385L19.2168 15.0496C19.3607 15.1355 19.4834 15.2529 19.5755 15.393C19.6676 15.533 19.7268 15.6921 19.7488 15.8583C19.7707 16.0245 19.7547 16.1936 19.702 16.3527C19.6493 16.5119 19.5613 16.657 19.4446 16.7773L17.2779 18.9218C17.0318 19.1667 16.7397 19.3605 16.4184 19.4921C16.097 19.6237 15.7529 19.6904 15.4057 19.6885ZM4.35568 2.02179L2.13346 4.16068C1.95426 4.32765 1.82162 4.53839 1.74856 4.77217C1.6755 5.00595 1.66456 5.25472 1.71679 5.49402C2.42275 8.71187 4.04552 11.6564 6.38901 13.9718C8.7969 16.2838 11.8088 17.8687 15.0779 18.544C15.3253 18.5957 15.5818 18.5853 15.8242 18.5135C16.0666 18.4418 16.2874 18.311 16.4668 18.1329L18.6335 15.9885L14.5835 13.3718L12.7279 14.8496C12.6569 14.9058 12.5732 14.9438 12.4841 14.9603C12.395 14.9767 12.3032 14.9711 12.2168 14.944C10.6761 14.3763 9.27982 13.4752 8.1279 12.3051C6.93643 11.1925 6.01158 9.82513 5.42235 8.30513C5.39742 8.21311 5.39659 8.11622 5.41994 8.02379C5.44329 7.93136 5.49004 7.84649 5.55568 7.77735L7.05568 5.9829L4.35568 2.02179Z" fill="#202020"/>
</svg>
