<svg width="20" height="20" viewBox="0 0 20 20" fill="none" xmlns="http://www.w3.org/2000/svg">
<path d="M15.4054 19.6885C15.2186 19.6879 15.0324 19.6675 14.8499 19.6273C11.3758 18.9087 8.17522 17.2237 5.61655 14.7662C3.11247 12.3034 1.37577 9.16768 0.616547 5.73846C0.527026 5.31108 0.548998 4.86785 0.68035 4.45141C0.811701 4.03498 1.04801 3.65936 1.36655 3.36068L3.58877 1.22179C3.70227 1.11445 3.83714 1.03225 3.98456 0.980561C4.13198 0.928868 4.28864 0.908843 4.44432 0.921793C4.60575 0.938634 4.76152 0.990634 4.9007 1.07414C5.03987 1.15764 5.15906 1.27062 5.24988 1.40513L8.02766 5.51068C8.13183 5.66998 8.18211 5.85851 8.17111 6.04853C8.16011 6.23855 8.0884 6.42002 7.96655 6.56624L6.5721 8.2329C7.12746 9.46204 7.91396 10.5729 8.88877 11.5051C9.85727 12.4711 11.002 13.2425 12.261 13.7773L13.9888 12.4051C14.1339 12.2904 14.3105 12.2226 14.495 12.2107C14.6796 12.1988 14.8635 12.2434 15.0221 12.3385L19.2165 15.0496C19.3605 15.1355 19.4831 15.2529 19.5752 15.393C19.6674 15.533 19.7266 15.6921 19.7485 15.8583C19.7704 16.0245 19.7544 16.1936 19.7018 16.3527C19.6491 16.5119 19.5611 16.657 19.4443 16.7773L17.2777 18.9218C17.0315 19.1667 16.7394 19.3605 16.4181 19.4921C16.0968 19.6237 15.7526 19.6904 15.4054 19.6885ZM4.35544 2.02179L2.13321 4.16068C1.95402 4.32765 1.82137 4.53839 1.74832 4.77217C1.67526 5.00595 1.66431 5.25472 1.71655 5.49402C2.4225 8.71187 4.04528 11.6564 6.38877 13.9718C8.79666 16.2838 11.8086 17.8687 15.0777 18.544C15.3251 18.5957 15.5815 18.5853 15.8239 18.5135C16.0663 18.4418 16.2871 18.311 16.4665 18.1329L18.6332 15.9885L14.5832 13.3718L12.7277 14.8496C12.6566 14.9058 12.5729 14.9438 12.4838 14.9603C12.3947 14.9767 12.303 14.9711 12.2165 14.944C10.6758 14.3763 9.27958 13.4752 8.12766 12.3051C6.93619 11.1925 6.01134 9.82513 5.4221 8.30513C5.39717 8.21311 5.39635 8.11622 5.4197 8.02379C5.44305 7.93136 5.48979 7.84649 5.55544 7.77735L7.05544 5.9829L4.35544 2.02179Z" fill="black"/>
</svg>
