<svg width="21" height="21" viewBox="0 0 21 21" fill="none" xmlns="http://www.w3.org/2000/svg">
<path d="M20.125 18.9046L19.014 20.0156L13.257 14.326C11.8716 15.4518 10.1049 16.1268 8.18042 16.1268C3.73163 16.1268 0.125 12.5202 0.125 8.071C0.125 3.62223 3.73163 0.015625 8.18042 0.015625C12.6296 0.015625 16.2362 3.62223 16.2362 8.071C16.2362 9.99539 15.5612 11.7621 14.4354 13.1475L20.125 18.9046ZM8.18061 14.4601C11.7094 14.4601 14.5697 11.5998 14.5697 8.0711C14.5697 4.54276 11.7094 1.68247 8.18061 1.68247C4.65226 1.68247 1.79196 4.54276 1.79196 8.0711C1.79196 11.5998 4.65226 14.4601 8.18061 14.4601Z" fill="#181818"/>
</svg>
