<svg width="25" height="24" viewBox="0 0 25 24" fill="none" xmlns="http://www.w3.org/2000/svg">
<path d="M24.2943 9.36304C24.1889 9.05062 23.9012 8.84354 23.5712 8.84354H23.5643C23.417 8.84354 23.0834 8.8541 22.6339 8.86466C18.6814 8.97 16.3295 8.97336 15.6348 8.86826L13.1635 1.40591C13.0582 1.09349 12.7705 0.882812 12.4405 0.882812H12.4335C12.1 0.886412 11.8123 1.10045 11.7139 1.41647L9.34097 8.96666L1.42897 9.01225C1.09543 9.01585 0.807744 9.22629 0.705957 9.54231C0.604219 9.85833 0.720114 10.2022 0.990304 10.3917L7.43477 14.983L5.03378 22.5228C4.93204 22.8388 5.04793 23.1793 5.31452 23.3722C5.44794 23.467 5.60247 23.5162 5.75676 23.5162C5.91465 23.5162 6.07614 23.467 6.20956 23.3653L12.5699 18.6544L19.0008 23.2705C19.271 23.4636 19.6326 23.46 19.8958 23.2635C20.1627 23.067 20.2714 22.7229 20.166 22.4071L17.6491 14.9061L24.0236 10.2164C24.2904 10.0196 24.3993 9.67554 24.294 9.3631L24.2943 9.36304ZM16.8774 14.1895C16.6105 14.386 16.5018 14.7301 16.6072 15.0459L18.924 21.9467L13.0091 17.7031C12.7389 17.51 12.3773 17.5136 12.1104 17.7101L6.26605 22.0418L8.47385 15.109C8.57559 14.7929 8.4597 14.4491 8.18951 14.2559L2.26429 10.0365L9.54112 9.99427C9.87466 9.99067 10.1623 9.77663 10.2641 9.46061L12.4475 2.51734L14.7362 9.42559C14.8977 9.91702 14.9608 10.0997 22.6623 9.89255H22.7254L16.8774 14.1895Z" fill="black"/>
</svg>
