<svg width="71" height="71" viewBox="0 0 71 71" fill="none" xmlns="http://www.w3.org/2000/svg">
<circle cx="35.5" cy="35.5" r="35.5" fill="#2DB742"/>
<g clip-path="url(#clip0_142_15378)">
<path fill-rule="evenodd" clip-rule="evenodd" d="M43.8481 39.1723C43.3887 38.9426 41.1363 37.8357 40.717 37.6815C40.2977 37.5289 39.9924 37.4534 39.6856 37.9128C39.3804 38.3691 38.5032 39.402 38.2365 39.7073C37.9682 40.0141 37.7015 40.0511 37.2436 39.8229C36.7857 39.5916 35.3088 39.1091 33.559 37.5489C32.1978 36.3341 31.2774 34.8341 31.0107 34.3746C30.744 33.9168 30.9814 33.6686 31.2111 33.4404C31.4177 33.2354 31.669 32.9054 31.8987 32.6387C32.1284 32.3705 32.2039 32.1793 32.3565 31.8725C32.5107 31.5673 32.4336 31.3006 32.318 31.0709C32.2039 30.8411 31.2882 28.5857 30.9058 27.6684C30.5343 26.7758 30.1566 26.8976 29.876 26.8821C29.6077 26.8698 29.3025 26.8667 28.9972 26.8667C28.692 26.8667 28.1956 26.9808 27.7762 27.4402C27.3554 27.8981 26.1729 29.0066 26.1729 31.262C26.1729 33.5159 27.8132 35.6943 28.043 36.0011C28.2727 36.3064 31.2727 40.9344 35.8685 42.9186C36.963 43.3903 37.8156 43.6724 38.48 43.8821C39.5777 44.2321 40.5767 44.1827 41.366 44.064C42.2448 43.933 44.0763 42.9556 44.4586 41.8856C44.8394 40.8157 44.8394 39.8984 44.7253 39.7073C44.6112 39.5161 44.306 39.402 43.8466 39.1723H43.8481ZM35.4892 50.5853H35.483C32.7534 50.5858 30.0739 49.852 27.7254 48.4609L27.1704 48.1309L21.4015 49.6449L22.9416 44.0209L22.5793 43.4443C21.0533 41.0151 20.2457 38.2038 20.2498 35.3351C20.2529 26.933 27.0887 20.0973 35.4954 20.0973C39.5654 20.0973 43.3918 21.6852 46.2685 24.565C47.6875 25.9781 48.8121 27.6585 49.5774 29.509C50.3427 31.3595 50.7334 33.3434 50.727 35.3459C50.724 43.748 43.8882 50.5853 35.4892 50.5853ZM48.4577 22.3774C46.7591 20.6676 44.738 19.3118 42.5116 18.3888C40.2852 17.4657 37.8978 16.9937 35.4877 17.0001C25.3836 17.0001 17.1573 25.2249 17.1542 35.3336C17.1495 38.5506 17.9934 41.712 19.6008 44.4988L17 54.0001L26.7187 51.4501C29.4071 52.9149 32.4199 53.6824 35.4815 53.6825H35.4892C45.5933 53.6825 53.8196 45.4577 53.8227 35.3474C53.8302 32.9382 53.3598 30.5515 52.439 28.3252C51.5181 26.0989 50.1649 24.0773 48.4577 22.3774Z" fill="white"/>
</g>
<defs>
<clipPath id="clip0_142_15378">
<rect width="37" height="37" fill="white" transform="translate(17 17)"/>
</clipPath>
</defs>
</svg>
