<svg width="55" height="28" viewBox="0 0 55 28" fill="none" xmlns="http://www.w3.org/2000/svg">
<path d="M0.218927 0.189453C2.11046 0.190183 4.002 0.189453 5.89353 0.190183C6.86476 0.198211 7.84472 0.547777 8.5555 1.22064C9.14551 1.76943 9.52091 2.56417 9.49545 3.37861C9.51873 4.11715 9.28738 4.87174 8.81159 5.4417C8.43255 5.90949 7.90147 6.22987 7.33983 6.42837C7.92693 6.59622 8.49221 6.9217 8.83923 7.43839C9.11278 7.82663 9.21608 8.30756 9.22045 8.77681C9.22118 9.64233 9.2219 10.5079 9.21972 11.3734C8.42018 11.3719 7.62065 11.3734 6.82111 11.3726C6.81965 10.6779 6.82256 9.98314 6.82038 9.28839C6.80365 8.79214 6.69089 8.26304 6.33295 7.89815C5.95391 7.51793 5.39591 7.40336 4.87938 7.38001C4.33811 7.37344 3.79756 7.37928 3.25629 7.37782C3.25848 6.73196 3.25047 6.08683 3.26066 5.44097C4.04055 5.44827 4.82045 5.4417 5.60034 5.44462C6.14525 5.44389 6.67124 5.106 6.90259 4.61048C7.21906 3.95805 7.12375 3.06261 6.54975 2.58095C6.22455 2.31385 5.79459 2.21168 5.38136 2.21387C4.41741 2.21606 3.45418 2.21314 2.49095 2.21533C2.49168 4.5988 2.49095 6.98227 2.49095 9.36648C1.73361 9.36648 0.975541 9.36648 0.218199 9.36648C0.218199 6.30722 0.217472 3.2487 0.218927 0.189453Z" fill="black" fill-opacity="0.3"/>
<path d="M28.9557 0.189453C29.7371 0.190183 30.5184 0.190183 31.3005 0.189453C31.3005 2.59774 31.3012 5.00602 31.3005 7.41431C31.9007 7.41503 32.5009 7.41431 33.1018 7.41504C33.8694 7.42598 34.5605 6.76772 34.634 6.00947C34.7606 5.21036 34.2128 4.33827 33.4008 4.19523C32.9709 4.13393 32.5344 4.18064 32.1022 4.16677C32.1015 3.5158 32.1022 2.86557 32.1015 2.21533C32.6049 2.21314 33.1084 2.21606 33.6118 2.21387C34.6675 2.19198 35.6991 2.74588 36.3175 3.59608C36.9387 4.43971 37.1461 5.55555 36.9431 6.57724C36.6565 7.85363 35.5659 8.82425 34.3459 9.19498C33.7326 9.39567 33.08 9.38764 32.4427 9.38399C31.2801 9.38399 30.1176 9.38399 28.955 9.38399C28.955 6.3189 28.9543 3.25454 28.9557 0.189453Z" fill="black" fill-opacity="0.3"/>
<path d="M47.3792 0.19C48.167 0.189271 48.9549 0.189271 49.7436 0.19C49.7436 1.64884 49.7428 3.1084 49.7436 4.56797C50.2368 4.55045 50.7374 4.61176 51.2262 4.52126C51.6846 4.42639 52.0556 4.07245 52.2142 3.63677C52.4034 3.18065 52.3895 2.6771 52.4055 2.19325C53.1796 2.20128 53.9537 2.19398 54.7285 2.1969C54.7088 2.95296 54.7154 3.7601 54.3218 4.43369C53.985 5.02189 53.3491 5.34738 52.7278 5.54807C53.4633 5.75533 54.1792 6.20049 54.5081 6.91787C54.8907 7.6783 54.759 8.54748 54.7816 9.36629C53.9995 9.36629 53.2174 9.36629 52.4361 9.36629C52.391 8.68832 52.575 7.94686 52.2113 7.32947C51.9305 6.81935 51.3434 6.56247 50.7839 6.52598C50.4376 6.51138 50.0899 6.52452 49.7436 6.52014C49.7428 7.46886 49.7428 8.41757 49.7436 9.36556C48.9549 9.36629 48.167 9.36629 47.3792 9.36556C47.3799 6.30704 47.3792 3.24852 47.3792 0.19Z" fill="black" fill-opacity="0.3"/>
<path d="M41.073 2.19088C42.232 1.98654 43.4811 2.08871 44.5316 2.64991C45.3334 3.07756 45.9605 3.82486 46.218 4.7006C46.5352 5.78287 46.4064 7.02423 45.7502 7.95762C45.1973 8.75965 44.3054 9.27926 43.3676 9.49016C42.2742 9.73318 41.0927 9.65655 40.072 9.17563C39.0927 8.71951 38.2939 7.84085 38.0269 6.78048C37.7527 5.688 37.9586 4.45466 38.665 3.56433C39.2564 2.81922 40.1484 2.35946 41.073 2.19088ZM41.6507 4.01022C40.8068 4.22186 40.1797 5.07352 40.24 5.94634C40.2742 6.56811 40.6307 7.16508 41.1676 7.48034C41.7002 7.81385 42.3978 7.8445 42.9609 7.56719C43.8274 7.16581 44.2806 6.0631 43.9169 5.17131C43.5982 4.28024 42.5579 3.74239 41.6507 4.01022Z" fill="black" fill-opacity="0.3"/>
<path d="M10.8356 3.88204C11.451 2.88807 12.5765 2.23638 13.7449 2.2174C15.2625 2.21229 16.7793 2.21667 18.2962 2.21521C18.2853 2.91361 18.3188 3.61713 18.2802 4.31115C17.7862 5.09931 17.2806 5.88091 16.783 6.66689C16.0293 6.6647 15.2763 6.67054 14.5233 6.66397C15.0217 5.83275 15.5222 5.00225 16.014 4.16738C15.4058 4.16592 14.7976 4.16884 14.1887 4.16592C13.6387 4.14768 13.1054 4.46732 12.8217 4.93365C12.4812 5.47515 12.5016 6.22172 12.8799 6.73987C13.1847 7.18503 13.7209 7.44338 14.2556 7.43389C15.6022 7.43389 16.9496 7.43316 18.2962 7.43389C18.2962 8.08413 18.2969 8.73436 18.2962 9.3846C16.999 9.38533 15.7019 9.3846 14.4047 9.38533C13.8722 9.38606 13.3273 9.39117 12.8137 9.22916C11.7973 8.93141 10.9432 8.14178 10.5518 7.15657C10.1211 6.10277 10.2244 4.84462 10.8356 3.88204Z" fill="black" fill-opacity="0.3"/>
<path d="M20.8432 2.90773C21.4368 2.45965 22.176 2.2232 22.9166 2.21517C24.408 2.21444 25.8994 2.21517 27.39 2.21517C27.3915 2.91284 27.3879 3.61051 27.3922 4.30819C26.891 5.09416 26.3912 5.8816 25.8885 6.66684C25.1362 6.66611 24.3847 6.66684 23.6324 6.66684C24.1235 5.83051 24.6277 5.00221 25.1224 4.16734C24.4582 4.1688 23.794 4.16223 23.1297 4.16953C22.2473 4.24105 21.5525 5.14671 21.6994 6.02099C21.7962 6.77777 22.4757 7.40903 23.2396 7.42947C24.6291 7.43895 26.0187 7.43166 27.4075 7.43312C27.4097 8.08335 27.4075 8.73359 27.409 9.38456C25.9147 9.38091 24.4203 9.39331 22.926 9.37872C22.0065 9.37799 21.0898 9.00361 20.4467 8.3417C19.6813 7.59659 19.2979 6.48732 19.4143 5.42694C19.5082 4.43517 20.0407 3.49448 20.8432 2.90773Z" fill="black" fill-opacity="0.3"/>
<path d="M39.4283 14.257C44.5427 13.69 49.6746 13.2857 54.8086 12.9551C52.0325 13.6644 49.2468 14.3475 46.4968 15.1598C42.6352 16.2654 38.8696 17.6753 35.1505 19.186C33.2044 18.0336 31.251 16.8944 29.3064 15.7399C32.6537 15.0817 36.0403 14.6445 39.4283 14.257Z" fill="black" fill-opacity="0.3"/>
<path d="M2.44434 13.2695C8.84427 13.2776 15.2449 13.26 21.6434 13.2783C23.0417 13.984 24.3898 14.7889 25.7539 15.5589C31.0385 18.6042 36.2948 21.7 41.5249 24.8381C42.782 25.5941 44.0399 26.348 45.284 27.1259C45.5568 27.3054 45.8449 27.4638 46.098 27.6718C40.4467 25.2898 34.8456 22.7815 29.1157 20.5936C24.2304 18.7181 19.2426 17.1111 14.1726 15.8209C11.3738 15.1006 8.55181 14.4744 5.71815 13.9081C4.62979 13.6826 3.52906 13.5089 2.44434 13.2695Z" fill="black" fill-opacity="0.3"/>
<path d="M9.46573 22.6566C12.1241 20.908 15.0596 19.6273 18.0468 18.5625C19.827 19.0442 21.5766 19.6389 23.3307 20.2089C20.9983 21.1364 18.7568 22.3158 16.738 23.8162C15.4473 24.7897 14.204 25.8589 13.2219 27.1528C10.3249 27.1542 7.42797 27.1557 4.53174 27.152C5.90747 25.3867 7.60184 23.8855 9.46573 22.6566Z" fill="black" fill-opacity="0.3"/>
<path d="M18.3107 25.1881C20.3121 23.3629 22.6431 21.923 25.1086 20.8203C26.5011 21.3085 27.8833 21.8274 29.2598 22.3602C28.0689 23.2104 26.883 24.0883 25.8929 25.1749C25.3225 25.7879 24.8183 26.4593 24.352 27.1541C21.7315 27.157 19.111 27.1534 16.4905 27.1563C17.0187 26.4316 17.6567 25.7967 18.3107 25.1881Z" fill="black" fill-opacity="0.3"/>
</svg>
