<svg width="59" height="21" viewBox="0 0 59 21" fill="none" xmlns="http://www.w3.org/2000/svg">
<path d="M6.5048 20.9917C4.74775 20.922 3.31021 20.4416 2.18618 19.5493C1.97166 19.3788 1.46049 18.8677 1.289 18.6522C0.833187 18.0795 0.523295 17.5221 0.316601 16.9037C-0.319429 15.0001 0.00791267 12.5021 1.25289 9.76066C2.31886 7.41361 3.96369 5.08581 6.83334 1.86182C7.25606 1.38742 8.51488 0 8.523 0C8.52601 0 8.45741 0.118749 8.37107 0.263355C7.62492 1.51218 6.98648 2.98318 6.63868 4.25667C6.07998 6.30007 6.14737 8.05366 6.83605 9.41342C7.31112 10.3502 8.12556 11.1616 9.0414 11.6102C10.6447 12.3951 12.9921 12.46 15.8587 11.8002C16.0561 11.7545 25.836 9.16029 37.592 6.03521C49.348 2.90982 58.9682 0.354747 58.9697 0.35685C58.973 0.359561 31.6571 12.0392 17.4771 18.0984C15.2314 19.0577 14.6309 19.3001 13.5751 19.6704C10.8764 20.6174 8.45892 21.0693 6.5048 20.9917Z" fill="black" fill-opacity="0.3"/>
</svg>
